<svg width="881.555" height="75.684" viewBox="0 0 881.555 75.684" xmlns="http://www.w3.org/2000/svg"><g id="svgGroup" fill-rule="evenodd" font-size="9pt" fill="#000" style="fill:#000"><path d="M 621.582 54.395 L 619.629 53.711 L 619.238 56.152 L 617.871 56.543 L 616.895 57.715 Q 615.039 60.938 612.988 63.135 A 25.646 25.646 0 0 1 608.35 67.041 A 37.759 37.759 0 0 1 604.942 69.033 A 46.966 46.966 0 0 1 602.49 70.215 Q 599.271 71.656 595.247 73.382 A 693.623 693.623 0 0 1 595.117 73.438 Q 593.457 73.242 592.236 73.193 A 48.795 48.795 0 0 1 590.768 73.113 A 40.443 40.443 0 0 1 589.941 73.047 A 30.248 30.248 0 0 1 588.443 73.007 Q 587.757 72.972 586.984 72.909 A 65.212 65.212 0 0 1 585.352 72.754 A 2.529 2.529 0 0 0 585.116 72.274 Q 584.92 71.969 584.652 71.785 A 1.5 1.5 0 0 0 584.473 71.68 Q 584.001 71.444 583.593 71.398 A 1.735 1.735 0 0 0 583.398 71.387 A 5.599 5.599 0 0 1 581.701 70.182 A 5.215 5.215 0 0 1 580.908 69.092 A 41.658 41.658 0 0 1 579.79 66.895 A 48.974 48.974 0 0 1 579.297 65.82 A 41.25 41.25 0 0 0 578.687 64.535 A 34.517 34.517 0 0 0 578.32 63.818 A 37.936 37.936 0 0 0 577.533 62.399 A 42.928 42.928 0 0 0 577.246 61.914 L 578.906 61.426 L 576.758 59.082 A 2.47 2.47 0 0 0 576.359 58.622 A 2.832 2.832 0 0 0 576.27 58.545 A 2.59 2.59 0 0 1 575.878 58.142 A 2.325 2.325 0 0 1 575.781 58.008 L 575.684 56.445 Q 575.391 49.707 575.439 44.092 A 37.817 37.817 0 0 1 575.831 38.86 A 28.215 28.215 0 0 1 576.953 34.082 L 576.953 33.008 A 83.552 83.552 0 0 1 577.1 31.979 Q 577.312 30.553 577.525 29.512 A 28.709 28.709 0 0 1 577.539 29.443 A 56.934 56.934 0 0 0 577.867 27.731 A 47.626 47.626 0 0 0 578.027 26.758 A 25.372 25.372 0 0 1 578.567 23.95 A 21.6 21.6 0 0 1 578.906 22.754 Q 580.273 22.461 580.957 21.631 Q 581.544 20.918 581.988 20.312 A 20.267 20.267 0 0 0 582.129 20.117 A 6.545 6.545 0 0 1 582.378 20.104 Q 583.542 20.065 583.984 20.508 A 3.085 3.085 0 0 1 584.305 20.891 Q 584.608 21.314 584.912 21.964 A 11.101 11.101 0 0 1 584.961 22.07 A 20.482 20.482 0 0 0 585.435 22.877 Q 585.686 23.284 585.98 23.725 A 35.112 35.112 0 0 0 586.182 24.023 A 4.168 4.168 0 0 0 587.383 25.175 A 5.795 5.795 0 0 0 588.379 25.684 A 11.103 11.103 0 0 0 588.717 26.781 A 13.087 13.087 0 0 0 588.916 27.295 A 172.032 172.032 0 0 1 589.27 28.162 A 218.099 218.099 0 0 1 589.648 29.102 A 36.732 36.732 0 0 1 591.064 32.568 A 13.944 13.944 0 0 1 591.619 34.608 A 11.291 11.291 0 0 1 591.797 36.035 A 15.217 15.217 0 0 0 590.837 38.308 A 19.889 19.889 0 0 0 590.283 40.332 A 31.536 31.536 0 0 0 589.6 45.264 A 31.337 31.337 0 0 0 589.545 47.104 A 27.829 27.829 0 0 0 589.697 50.049 Q 589.884 51.806 590.271 53.134 A 10.87 10.87 0 0 0 590.527 53.906 L 591.113 55.176 L 592.773 54.98 A 58.206 58.206 0 0 0 595.569 54.163 A 45.315 45.315 0 0 0 598.096 53.271 A 27.112 27.112 0 0 0 602.152 51.309 A 24.889 24.889 0 0 0 602.539 51.074 Q 604.59 49.805 606.445 48.096 A 56.147 56.147 0 0 0 608.35 46.252 A 74.32 74.32 0 0 0 610.352 44.141 A 24.038 24.038 0 0 0 613.529 39.724 A 27.001 27.001 0 0 0 613.916 39.014 Q 615.43 36.133 616.455 33.008 Q 617.48 29.883 618.018 26.807 A 62.235 62.235 0 0 0 618.555 23.095 A 51.156 51.156 0 0 0 618.75 20.996 A 2.84 2.84 0 0 0 619.598 20.538 Q 620.41 19.881 620.41 18.652 L 620.215 17.578 A 1.122 1.122 0 0 1 620.02 16.943 Q 620.02 16.634 620.18 16.284 A 2.393 2.393 0 0 1 620.215 16.211 Q 620.801 14.355 622.949 13.379 A 17.598 17.598 0 0 1 625.101 14.954 A 15.564 15.564 0 0 1 625.732 15.527 A 52.008 52.008 0 0 1 627.757 17.578 A 47.359 47.359 0 0 1 628.027 17.871 A 22.781 22.781 0 0 0 628.249 19.609 Q 628.387 20.42 628.578 21.125 A 12.544 12.544 0 0 0 628.711 21.582 A 41.389 41.389 0 0 0 629.014 22.516 A 10.561 10.561 0 0 1 628.913 21.332 A 13.453 13.453 0 0 1 628.906 20.898 Q 629.004 20.119 629.295 19.729 A 1.244 1.244 0 0 1 629.297 19.727 A 20.755 20.755 0 0 0 629.503 19.447 Q 629.603 19.309 629.688 19.186 A 10.446 10.446 0 0 0 629.785 19.043 L 630.078 17.578 L 631.348 17.676 L 634.082 17.676 Q 637.207 17.676 640.43 17.432 A 670.193 670.193 0 0 0 646.644 16.931 A 731.971 731.971 0 0 0 647.07 16.895 A 1645.562 1645.562 0 0 1 651.025 16.504 A 616.467 616.467 0 0 1 654.111 16.211 A 684.186 684.186 0 0 1 655.176 16.113 A 41.999 41.999 0 0 1 655.756 14.862 A 36.309 36.309 0 0 1 655.957 14.453 L 656.934 13.965 Q 658.562 13.874 659.311 14.329 A 1.563 1.563 0 0 1 659.424 14.404 A 13.298 13.298 0 0 1 660.017 14.864 Q 660.281 15.082 660.502 15.291 A 7.354 7.354 0 0 1 660.645 15.43 A 218.446 218.446 0 0 0 664.99 14.99 A 72.951 72.951 0 0 0 669.434 14.355 A 220.592 220.592 0 0 1 676.123 13.477 A 58.18 58.18 0 0 1 681.039 13.11 A 51.5 51.5 0 0 1 682.617 13.086 A 34.917 34.917 0 0 1 684.895 13.158 A 31.387 31.387 0 0 1 685.254 13.184 Q 686.523 13.281 687.598 13.477 L 688.574 14.16 A 3.538 3.538 0 0 0 689.166 15 A 4.224 4.224 0 0 0 689.404 15.234 A 34.564 34.564 0 0 0 690.527 16.211 A 20.2 20.2 0 0 1 691.516 17.186 A 670.193 670.193 0 0 0 694.593 16.931 A 731.971 731.971 0 0 0 695.02 16.895 A 1645.562 1645.562 0 0 1 698.975 16.504 A 616.467 616.467 0 0 1 702.06 16.211 A 684.186 684.186 0 0 1 703.125 16.113 A 41.999 41.999 0 0 1 703.705 14.862 A 36.309 36.309 0 0 1 703.906 14.453 L 704.883 13.965 Q 706.512 13.874 707.26 14.329 A 1.563 1.563 0 0 1 707.373 14.404 A 13.298 13.298 0 0 1 707.966 14.864 Q 708.23 15.082 708.451 15.291 A 7.354 7.354 0 0 1 708.594 15.43 A 218.446 218.446 0 0 0 712.939 14.99 A 72.951 72.951 0 0 0 717.383 14.355 A 220.592 220.592 0 0 1 724.072 13.477 A 58.18 58.18 0 0 1 728.989 13.11 A 51.5 51.5 0 0 1 730.566 13.086 A 34.917 34.917 0 0 1 732.844 13.158 A 31.387 31.387 0 0 1 733.203 13.184 Q 734.473 13.281 735.547 13.477 L 736.523 14.16 A 3.538 3.538 0 0 0 737.115 15 A 4.224 4.224 0 0 0 737.354 15.234 A 34.564 34.564 0 0 0 738.477 16.211 A 20.2 20.2 0 0 1 739.795 17.543 A 25.904 25.904 0 0 1 740.82 18.75 A 3.997 3.997 0 0 1 741.329 19.596 A 149.334 149.334 0 0 0 741.748 19.507 A 173.716 173.716 0 0 0 743.848 19.043 A 95.677 95.677 0 0 1 747.107 18.044 Q 748.601 17.617 749.948 17.294 A 53.923 53.923 0 0 1 750.83 17.09 A 85.332 85.332 0 0 1 756.885 15.967 A 235.447 235.447 0 0 1 761.49 15.335 A 263.403 263.403 0 0 1 763.086 15.137 A 89.474 89.474 0 0 0 766.074 14.72 Q 768.103 14.404 770.41 13.965 A 4.413 4.413 0 0 0 770.896 14.389 Q 771.159 14.584 771.413 14.696 A 1.629 1.629 0 0 0 772.07 14.844 A 2.271 2.271 0 0 1 772.192 14.605 Q 772.539 14.022 772.99 14.301 A 0.838 0.838 0 0 1 772.998 14.307 A 0.937 0.937 0 0 0 773.079 14.353 Q 773.527 14.579 773.438 13.77 Q 774.414 15.43 775.928 16.553 A 15.976 15.976 0 0 0 778.952 18.308 A 17.883 17.883 0 0 0 779.297 18.457 A 8.343 8.343 0 0 1 779.331 18.727 Q 779.384 19.212 779.346 19.482 A 31.019 31.019 0 0 1 779.297 19.812 A 24.755 24.755 0 0 1 779.248 20.117 A 3.573 3.573 0 0 0 779.206 20.502 A 4.416 4.416 0 0 0 779.199 20.752 Q 779.199 21.031 779.33 21.539 A 9.252 9.252 0 0 0 779.395 21.777 A 15.157 15.157 0 0 1 777.803 23.933 Q 776.358 25.546 774.658 26.318 A 23.332 23.332 0 0 1 769.622 27.931 A 26.386 26.386 0 0 1 768.848 28.076 A 926.369 926.369 0 0 0 762.451 29.199 A 17.871 17.871 0 0 0 757.976 30.651 A 21.954 21.954 0 0 0 755.957 31.738 A 3.858 3.858 0 0 0 755.342 31.556 Q 755.038 31.494 754.749 31.494 A 2.496 2.496 0 0 0 753.662 31.738 A 3.18 3.18 0 0 1 752.989 31.964 Q 752.255 32.128 751.223 32.073 A 11.746 11.746 0 0 1 750.684 32.031 A 3.171 3.171 0 0 1 749.512 32.767 A 3.875 3.875 0 0 1 749.219 32.861 A 36.179 36.179 0 0 0 747.461 33.398 Q 747.852 34.277 747.803 35.205 Q 747.762 35.977 747.958 36.513 A 1.995 1.995 0 0 0 748.047 36.719 A 35.068 35.068 0 0 0 750.516 36.84 Q 752.91 36.876 755.615 36.621 Q 759.766 36.23 763.77 36.133 A 1.938 1.938 0 0 1 763.789 36.249 Q 763.843 36.639 763.672 36.768 Q 763.477 36.914 763.574 37.305 A 8.218 8.218 0 0 1 764.343 37.931 A 10.719 10.719 0 0 1 764.941 38.525 A 57.116 57.116 0 0 0 766.309 39.941 A 7.933 7.933 0 0 0 767.182 40.701 A 6.601 6.601 0 0 0 767.725 41.064 A 2.539 2.539 0 0 0 768.875 41.417 Q 769.144 41.435 769.434 41.406 Q 769.824 42.188 769.971 43.115 A 3.263 3.263 0 0 1 770.011 43.625 Q 770.011 44.309 769.727 45.02 A 182.684 182.684 0 0 0 766.602 47.217 A 25.87 25.87 0 0 1 763.33 49.219 A 19.381 19.381 0 0 1 759.717 50.635 A 12.014 12.014 0 0 1 757.58 51.025 Q 756.902 51.089 756.18 51.089 A 17.074 17.074 0 0 1 755.469 51.074 L 754.736 51.074 A 0.558 0.558 0 0 1 754.569 51.046 Q 754.415 50.997 754.219 50.865 A 2.823 2.823 0 0 1 754.102 50.781 A 2.152 2.152 0 0 1 753.463 51.043 Q 752.815 51.2 751.904 51.074 A 6.207 6.207 0 0 0 751.513 51.032 Q 750.543 50.961 749.913 51.255 A 1.933 1.933 0 0 0 749.707 51.367 A 4.759 4.759 0 0 0 748.567 51.021 Q 748.019 50.923 747.391 50.923 A 8.424 8.424 0 0 0 747.119 50.928 A 10.303 10.303 0 0 1 746.787 50.933 Q 746.131 50.933 745.543 50.846 A 6.504 6.504 0 0 1 744.434 50.586 Q 742.871 52.637 741.602 54.98 A 38.544 38.544 0 0 0 739.363 59.94 A 42.655 42.655 0 0 0 739.355 59.961 A 45.557 45.557 0 0 0 741.321 60.209 Q 743.301 60.412 744.781 60.355 A 15.464 15.464 0 0 0 744.873 60.352 A 54.997 54.997 0 0 0 747.779 60.148 A 46.526 46.526 0 0 0 749.023 60.01 A 688.028 688.028 0 0 1 753.027 59.521 A 22.2 22.2 0 0 1 754.203 59.415 Q 755.581 59.325 757.332 59.354 A 58.857 58.857 0 0 1 758.203 59.375 A 11.399 11.399 0 0 1 760.632 58.398 A 15.407 15.407 0 0 1 762.842 57.959 Q 765.527 57.617 767.773 56.836 A 3.033 3.033 0 0 1 768.855 57.542 A 3.808 3.808 0 0 1 769.141 57.861 A 70.524 70.524 0 0 0 769.714 58.569 A 58.873 58.873 0 0 0 770.264 59.229 A 9.447 9.447 0 0 0 771.097 60.098 A 8.325 8.325 0 0 0 771.387 60.352 A 1.749 1.749 0 0 0 772.418 60.754 Q 772.608 60.766 772.815 60.746 A 2.807 2.807 0 0 0 772.852 60.742 A 2.054 2.054 0 0 1 773.389 61.67 A 16.166 16.166 0 0 1 773.567 62.385 A 13.662 13.662 0 0 1 773.633 62.695 A 2.448 2.448 0 0 0 773.764 63.14 A 1.882 1.882 0 0 0 773.975 63.525 Q 774.194 63.833 774.69 63.785 A 1.685 1.685 0 0 0 774.805 63.77 A 20.164 20.164 0 0 1 773.644 65.974 Q 772.626 67.633 771.436 68.701 Q 769.531 70.41 767.09 71.289 A 27.942 27.942 0 0 1 764.001 72.195 A 35.107 35.107 0 0 1 761.67 72.656 A 237.107 237.107 0 0 0 758.533 73.193 A 318.693 318.693 0 0 0 755.078 73.828 A 3.861 3.861 0 0 1 754.708 73.893 Q 754.283 73.944 753.938 73.877 A 1.685 1.685 0 0 1 753.613 73.779 A 3.072 3.072 0 0 0 752.914 73.585 A 4.237 4.237 0 0 0 752.246 73.535 Q 750.526 73.909 748.292 74.226 A 87.363 87.363 0 0 1 746.875 74.414 Q 743.75 74.805 740.527 74.707 A 29.262 29.262 0 0 1 735.112 74.05 A 26.778 26.778 0 0 1 734.375 73.877 A 11.417 11.417 0 0 1 731.789 72.904 A 9.134 9.134 0 0 1 729.59 71.289 Q 728.809 70.605 728.564 69.678 A 1.951 1.951 0 0 0 727.824 68.6 A 3.027 3.027 0 0 0 727.246 68.262 A 22.397 22.397 0 0 0 727.103 66.941 Q 727.01 66.268 726.874 65.529 A 36.249 36.249 0 0 0 726.855 65.43 A 206.925 206.925 0 0 1 726.416 63.004 A 235.43 235.43 0 0 1 726.27 62.158 A 41.558 41.558 0 0 1 725.83 58.789 Q 725.684 57.129 725.977 55.762 A 6.125 6.125 0 0 1 727.197 53.125 Q 728.111 51.971 727.841 50.627 A 3.371 3.371 0 0 0 727.832 50.586 A 0.924 0.924 0 0 0 728.087 50.498 A 0.639 0.639 0 0 0 728.418 50.049 A 0.423 0.423 0 0 1 728.554 49.81 Q 728.747 49.646 729.183 49.705 A 2.084 2.084 0 0 1 729.199 49.707 A 40.494 40.494 0 0 1 730.133 47.18 A 35.764 35.764 0 0 1 730.469 46.387 A 65.245 65.245 0 0 1 731.885 43.359 A 255.629 255.629 0 0 0 733.35 40.381 A 33.785 33.785 0 0 0 734.158 38.57 A 43.055 43.055 0 0 0 734.766 37.012 A 8.843 8.843 0 0 1 733.474 35.528 A 7.3 7.3 0 0 1 732.764 34.229 A 15.554 15.554 0 0 1 731.915 31.58 A 14.283 14.283 0 0 1 731.836 31.201 A 44.843 44.843 0 0 1 731.348 28.076 A 20.022 20.022 0 0 0 731.087 26.489 A 39.879 39.879 0 0 0 729.552 26.573 A 50.358 50.358 0 0 0 727.148 26.807 A 257.727 257.727 0 0 0 721.582 27.539 A 95.064 95.064 0 0 1 718.735 27.924 A 83.831 83.831 0 0 1 717.822 28.027 A 94.307 94.307 0 0 1 716.101 28.198 A 68.529 68.529 0 0 1 714.551 28.32 A 59.167 59.167 0 0 1 713.91 30.227 Q 713.592 31.119 713.274 31.906 A 35.553 35.553 0 0 1 713.184 32.129 Q 712.5 33.789 711.719 35.352 A 43.394 43.394 0 0 0 710.303 38.721 A 57.199 57.199 0 0 0 709.453 41.186 A 67.596 67.596 0 0 0 709.082 42.383 A 36.361 36.361 0 0 0 708.242 43.794 Q 707.862 44.467 707.557 45.088 A 21.732 21.732 0 0 0 707.471 45.264 A 13.228 13.228 0 0 0 706.803 46.95 A 16.692 16.692 0 0 0 706.445 48.242 A 11.315 11.315 0 0 0 705.087 50.375 A 9.994 9.994 0 0 0 704.688 51.318 Q 704.239 52.552 703.962 53.528 A 18.922 18.922 0 0 0 703.809 54.102 L 703.418 55.273 Q 702.832 55.859 702.734 56.201 A 0.978 0.978 0 0 1 702.571 56.521 Q 702.486 56.634 702.364 56.74 A 2.006 2.006 0 0 1 702.246 56.836 Q 702.148 57.91 701.563 58.984 A 6.686 6.686 0 0 0 701.374 59.518 A 5.292 5.292 0 0 0 701.27 59.912 A 7.634 7.634 0 0 0 701.227 60.117 Q 701.19 60.307 701.178 60.436 A 1.2 1.2 0 0 0 701.172 60.547 A 3.038 3.038 0 0 1 701.145 60.967 Q 701.057 61.592 700.684 61.816 A 2.546 2.546 0 0 1 700.732 62.317 Q 700.732 62.549 700.692 62.792 A 3.215 3.215 0 0 1 700.684 62.842 A 61.69 61.69 0 0 1 700.537 63.62 A 53.671 53.671 0 0 1 700.488 63.867 Q 700.195 65.039 700.293 65.723 A 21.046 21.046 0 0 0 700.54 66.046 Q 700.655 66.193 700.76 66.322 A 12.328 12.328 0 0 0 700.83 66.406 Q 701.051 66.671 701.152 67.097 A 2.602 2.602 0 0 1 701.172 67.188 Q 701.614 67.482 701.889 67.61 A 1.56 1.56 0 0 0 702.051 67.676 Q 702.403 67.94 703.074 68.284 A 16.346 16.346 0 0 0 703.223 68.359 L 704.102 69.336 A 9.056 9.056 0 0 1 704.205 70.149 Q 704.296 71.281 704.051 72.201 A 4.252 4.252 0 0 1 703.223 73.828 Q 701.758 75.684 698.242 75.684 L 697.07 75.684 Q 696.695 75.308 696.55 75.048 A 0.871 0.871 0 0 1 696.484 74.902 A 105.648 105.648 0 0 1 696.112 74.762 Q 695.581 74.561 695.215 74.414 Q 694.788 74.243 694.435 73.773 A 3.098 3.098 0 0 1 694.336 73.633 Q 693.066 73.047 692.285 72.656 L 691.406 72.168 L 691.406 70.996 A 6.234 6.234 0 0 1 690.381 69.043 Q 690.039 67.969 689.844 66.895 A 21.191 21.191 0 0 0 689.527 65.644 A 18.361 18.361 0 0 0 689.404 65.234 A 5.87 5.87 0 0 0 689.085 64.42 A 4.683 4.683 0 0 0 688.77 63.867 A 42.933 42.933 0 0 1 688.743 62.388 Q 688.743 57.682 689.844 54.297 A 169.818 169.818 0 0 1 692.14 47.685 A 154.847 154.847 0 0 1 692.48 46.777 Q 693.262 44.824 694.043 42.822 A 41.296 41.296 0 0 0 695.41 38.672 L 696.289 37.695 A 607.062 607.062 0 0 0 696.616 36.948 Q 697.083 35.876 697.412 35.107 A 105.392 105.392 0 0 1 698.309 33.075 A 114.758 114.758 0 0 1 698.34 33.008 A 39.087 39.087 0 0 0 698.752 32.01 A 34.141 34.141 0 0 0 698.877 31.689 Q 699.121 31.055 699.316 30.566 A 12.382 12.382 0 0 0 698.755 30.579 A 9.49 9.49 0 0 0 698.242 30.615 A 10.103 10.103 0 0 0 697.266 30.762 Q 696.68 30.859 696.191 30.908 A 9.808 9.808 0 0 1 695.215 30.957 A 7.656 7.656 0 0 1 694.897 30.951 Q 694.458 30.933 694.238 30.859 A 5.52 5.52 0 0 1 692.17 31.342 A 6.441 6.441 0 0 1 691.895 31.348 L 690.918 31.348 A 3.061 3.061 0 0 1 690.608 31.333 A 2.397 2.397 0 0 1 690.381 31.299 A 2.775 2.775 0 0 0 690.177 31.265 Q 690.071 31.252 689.976 31.25 A 1.615 1.615 0 0 0 689.941 31.25 A 5.306 5.306 0 0 0 689.329 31.283 Q 689.031 31.318 688.782 31.389 A 2.324 2.324 0 0 0 688.379 31.543 L 686.133 31.543 L 685.156 31.543 A 2.025 2.025 0 0 0 685.003 31.549 Q 684.929 31.555 684.846 31.566 A 4.617 4.617 0 0 0 684.668 31.592 Q 684.471 31.625 684.318 31.635 A 1.981 1.981 0 0 1 684.18 31.641 A 7.27 7.27 0 0 1 683.333 31.589 A 9.13 9.13 0 0 1 682.715 31.494 Q 681.934 31.348 681.055 30.859 Q 679.909 29.331 679.51 29.204 A 0.289 0.289 0 0 0 679.492 29.199 L 678.613 28.027 A 6.318 6.318 0 0 0 678.324 26.914 A 257.727 257.727 0 0 0 673.633 27.539 A 95.064 95.064 0 0 1 670.786 27.924 A 83.831 83.831 0 0 1 669.873 28.027 A 94.307 94.307 0 0 1 668.152 28.198 A 68.529 68.529 0 0 1 666.602 28.32 A 59.167 59.167 0 0 1 665.961 30.227 Q 665.643 31.119 665.325 31.906 A 35.553 35.553 0 0 1 665.234 32.129 Q 664.551 33.789 663.77 35.352 A 43.394 43.394 0 0 0 662.354 38.721 A 57.199 57.199 0 0 0 661.504 41.186 A 67.596 67.596 0 0 0 661.133 42.383 A 36.361 36.361 0 0 0 660.292 43.794 Q 659.913 44.467 659.607 45.088 A 21.732 21.732 0 0 0 659.521 45.264 A 13.228 13.228 0 0 0 658.854 46.95 A 16.692 16.692 0 0 0 658.496 48.242 A 11.315 11.315 0 0 0 657.138 50.375 A 9.994 9.994 0 0 0 656.738 51.318 Q 656.29 52.552 656.013 53.528 A 18.922 18.922 0 0 0 655.859 54.102 L 655.469 55.273 Q 654.883 55.859 654.785 56.201 A 0.978 0.978 0 0 1 654.622 56.521 Q 654.537 56.634 654.415 56.74 A 2.006 2.006 0 0 1 654.297 56.836 Q 654.199 57.91 653.613 58.984 A 6.686 6.686 0 0 0 653.424 59.518 A 5.292 5.292 0 0 0 653.32 59.912 A 7.634 7.634 0 0 0 653.278 60.117 Q 653.241 60.307 653.229 60.436 A 1.2 1.2 0 0 0 653.223 60.547 A 3.038 3.038 0 0 1 653.196 60.967 Q 653.108 61.592 652.734 61.816 A 2.546 2.546 0 0 1 652.783 62.317 Q 652.783 62.549 652.743 62.792 A 3.215 3.215 0 0 1 652.734 62.842 A 61.69 61.69 0 0 1 652.588 63.62 A 53.671 53.671 0 0 1 652.539 63.867 Q 652.246 65.039 652.344 65.723 A 21.046 21.046 0 0 0 652.591 66.046 Q 652.705 66.193 652.811 66.322 A 12.328 12.328 0 0 0 652.881 66.406 Q 653.102 66.671 653.203 67.097 A 2.602 2.602 0 0 1 653.223 67.188 Q 653.664 67.482 653.94 67.61 A 1.56 1.56 0 0 0 654.102 67.676 Q 654.454 67.94 655.125 68.284 A 16.346 16.346 0 0 0 655.273 68.359 L 656.152 69.336 A 9.056 9.056 0 0 1 656.256 70.149 Q 656.347 71.281 656.102 72.201 A 4.252 4.252 0 0 1 655.273 73.828 Q 653.809 75.684 650.293 75.684 L 649.121 75.684 Q 648.746 75.308 648.601 75.048 A 0.871 0.871 0 0 1 648.535 74.902 A 105.648 105.648 0 0 1 648.163 74.762 Q 647.632 74.561 647.266 74.414 Q 646.838 74.243 646.486 73.773 A 3.098 3.098 0 0 1 646.387 73.633 Q 645.117 73.047 644.336 72.656 L 643.457 72.168 L 643.457 70.996 A 6.234 6.234 0 0 1 642.432 69.043 Q 642.09 67.969 641.895 66.895 A 21.191 21.191 0 0 0 641.578 65.644 A 18.361 18.361 0 0 0 641.455 65.234 A 5.87 5.87 0 0 0 641.135 64.42 A 4.683 4.683 0 0 0 640.82 63.867 A 42.933 42.933 0 0 1 640.794 62.388 Q 640.794 57.682 641.895 54.297 A 169.818 169.818 0 0 1 644.191 47.685 A 154.847 154.847 0 0 1 644.531 46.777 Q 645.313 44.824 646.094 42.822 A 41.296 41.296 0 0 0 647.461 38.672 L 648.34 37.695 A 607.062 607.062 0 0 0 648.666 36.948 Q 649.133 35.876 649.463 35.107 A 105.392 105.392 0 0 1 650.36 33.075 A 114.758 114.758 0 0 1 650.391 33.008 A 39.087 39.087 0 0 0 650.803 32.01 A 34.141 34.141 0 0 0 650.928 31.689 Q 651.172 31.055 651.367 30.566 A 12.382 12.382 0 0 0 650.806 30.579 A 9.49 9.49 0 0 0 650.293 30.615 A 10.103 10.103 0 0 0 649.316 30.762 Q 648.73 30.859 648.242 30.908 A 9.808 9.808 0 0 1 647.266 30.957 A 7.656 7.656 0 0 1 646.948 30.951 Q 646.509 30.933 646.289 30.859 A 5.52 5.52 0 0 1 644.221 31.342 A 6.441 6.441 0 0 1 643.945 31.348 L 642.969 31.348 A 3.061 3.061 0 0 1 642.659 31.333 A 2.397 2.397 0 0 1 642.432 31.299 A 2.775 2.775 0 0 0 642.227 31.265 Q 642.122 31.252 642.027 31.25 A 1.615 1.615 0 0 0 641.992 31.25 A 5.306 5.306 0 0 0 641.38 31.283 Q 641.082 31.318 640.832 31.389 A 2.324 2.324 0 0 0 640.43 31.543 L 638.184 31.543 L 637.207 31.543 A 2.025 2.025 0 0 0 637.054 31.549 Q 636.98 31.555 636.896 31.566 A 4.617 4.617 0 0 0 636.719 31.592 Q 636.522 31.625 636.369 31.635 A 1.981 1.981 0 0 1 636.23 31.641 A 7.27 7.27 0 0 1 635.384 31.589 A 9.13 9.13 0 0 1 634.766 31.494 Q 633.984 31.348 633.105 30.859 Q 631.959 29.331 631.561 29.204 A 0.289 0.289 0 0 0 631.543 29.199 L 631.048 28.539 A 11.769 11.769 0 0 1 631.049 28.545 Q 631.189 29.196 631.286 29.94 A 21.927 21.927 0 0 1 631.348 30.469 A 40.038 40.038 0 0 0 630.676 32.91 A 29.662 29.662 0 0 0 630.225 35.156 A 597.582 597.582 0 0 1 629.684 38.489 A 681.118 681.118 0 0 1 629.492 39.648 A 103.123 103.123 0 0 1 628.001 42.776 Q 627.22 44.344 626.465 45.703 Q 625 48.34 624.121 50.293 Q 623.633 50.781 623.291 51.416 A 57.979 57.979 0 0 1 622.751 52.396 A 66.075 66.075 0 0 1 622.559 52.734 A 4.345 4.345 0 0 0 622.434 52.934 Q 622.326 53.118 622.194 53.37 A 16.771 16.771 0 0 0 622.07 53.613 A 7.769 7.769 0 0 1 621.93 53.882 Q 621.799 54.12 621.691 54.265 A 1.17 1.17 0 0 1 621.582 54.394 Z M 219.336 41.895 L 226.074 37.402 Q 226.897 38 228.005 38.684 A 48.577 48.577 0 0 0 228.711 39.111 Q 230.273 40.039 231.982 40.967 A 173.326 173.326 0 0 0 235.498 42.822 A 108.232 108.232 0 0 1 237.661 43.963 A 89.671 89.671 0 0 1 238.867 44.629 A 8.688 8.688 0 0 1 241.309 46.191 Q 242.383 47.168 243.359 48.193 Q 244.336 49.219 245.361 50.195 A 9.62 9.62 0 0 0 246.561 51.16 A 67.57 67.57 0 0 1 246.924 49.902 A 9.214 9.214 0 0 1 247.526 48.378 A 7.459 7.459 0 0 1 248.145 47.363 A 2.259 2.259 0 0 1 247.949 46.436 Q 247.949 45.947 248.145 45.41 A 14.582 14.582 0 0 1 248.671 44.144 A 12.031 12.031 0 0 1 249.023 43.457 A 1086.21 1086.21 0 0 0 249.987 40.832 Q 250.739 38.776 251.318 37.158 A 238.258 238.258 0 0 1 253.223 32.031 A 282.933 282.933 0 0 0 256.348 23.34 A 92.739 92.739 0 0 0 258.064 17.702 A 110.934 110.934 0 0 0 258.984 14.063 A 33.364 33.364 0 0 1 259.351 13.837 Q 259.863 13.525 260.156 13.379 A 21.591 21.591 0 0 1 260.437 13.287 Q 260.813 13.168 261.093 13.096 A 7.114 7.114 0 0 1 261.133 13.086 A 30.122 30.122 0 0 0 262.91 13.899 Q 263.989 14.354 265.234 14.795 A 19.477 19.477 0 0 0 266.623 15.233 Q 267.322 15.423 267.935 15.521 A 7.671 7.671 0 0 0 269.141 15.625 A 12.989 12.989 0 0 1 269.454 15.827 Q 269.965 16.167 270.117 16.357 A 5.712 5.712 0 0 0 270.361 16.644 A 4.741 4.741 0 0 0 270.508 16.797 A 19.564 19.564 0 0 1 272.007 18.81 A 17.365 17.365 0 0 1 272.363 19.385 A 3.922 3.922 0 0 1 272.823 20.602 Q 272.99 21.412 272.9 22.421 A 9.222 9.222 0 0 1 272.852 22.852 A 7.138 7.138 0 0 1 272.642 23.15 Q 272.211 23.73 271.973 23.73 Q 271.484 25.684 270.947 27.051 A 96.735 96.735 0 0 1 269.824 29.785 A 56.897 56.897 0 0 0 268.555 32.715 Q 267.969 34.18 267.578 36.328 A 4.972 4.972 0 0 0 267.338 36.652 Q 267.228 36.815 267.15 36.966 A 2.166 2.166 0 0 0 267.041 37.207 Q 266.895 37.598 266.699 38.086 A 22.725 22.725 0 0 1 266.436 38.715 A 26.976 26.976 0 0 1 266.26 39.111 A 2.498 2.498 0 0 1 265.561 40.011 A 2.906 2.906 0 0 1 265.527 40.039 A 23.856 23.856 0 0 1 265.286 41.669 Q 265.142 42.437 264.958 43.087 A 10.255 10.255 0 0 1 264.6 44.141 A 127.855 127.855 0 0 1 263.281 47.266 A 79.725 79.725 0 0 0 261.182 52.93 A 21.86 21.86 0 0 0 260.403 56.159 A 29.341 29.341 0 0 0 260.059 59.375 A 2.89 2.89 0 0 1 260.527 59.23 A 2.194 2.194 0 0 1 260.986 59.18 L 261.816 59.18 A 6.456 6.456 0 0 1 262.579 59.228 Q 262.949 59.272 263.36 59.357 A 12.394 12.394 0 0 1 263.867 59.473 Q 266.797 57.91 270.264 57.617 Q 273.73 57.324 277.148 57.227 L 279.883 57.227 A 16.858 16.858 0 0 0 281.437 57.158 A 13.653 13.653 0 0 0 282.422 57.031 Q 283.301 57.52 283.545 57.568 A 1.868 1.868 0 0 0 283.702 57.592 Q 283.926 57.617 284.277 57.617 A 8.118 8.118 0 0 1 284.763 57.631 Q 285.013 57.646 285.23 57.677 A 4.131 4.131 0 0 1 285.449 57.715 Q 286.402 58.588 287.291 59.075 A 6.119 6.119 0 0 0 287.695 59.277 A 23.001 23.001 0 0 0 289.941 60.156 A 40.232 40.232 0 0 1 292.041 60.986 A 8.241 8.241 0 0 1 293.428 61.752 A 9.865 9.865 0 0 1 294.043 62.207 L 294.727 66.406 A 7.772 7.772 0 0 1 294.93 66.679 Q 295.394 67.333 295.313 67.578 A 2.49 2.49 0 0 1 295.276 68.018 Q 295.233 68.259 295.138 68.448 A 1.158 1.158 0 0 1 294.922 68.75 L 295.117 69.824 A 12.734 12.734 0 0 0 294.443 69.977 Q 293.836 70.133 293.454 70.313 A 2.093 2.093 0 0 0 293.115 70.508 Q 292.578 70.898 292.09 71.387 A 23.402 23.402 0 0 1 291.727 71.429 Q 291.388 71.466 291.162 71.478 A 3.705 3.705 0 0 1 290.967 71.484 L 290.332 71.484 A 9.703 9.703 0 0 0 289.224 71.553 Q 288.666 71.617 288.036 71.742 A 21.191 21.191 0 0 0 287.012 71.973 Q 284.375 71.094 281.543 71.094 A 26.175 26.175 0 0 0 279.877 71.149 A 29.975 29.975 0 0 0 279.297 71.191 L 276.953 71.387 A 28.253 28.253 0 0 1 274.561 71.68 Q 273.34 71.777 272.07 71.777 L 269.824 72.363 A 124.358 124.358 0 0 1 266.968 73.242 A 155.942 155.942 0 0 1 263.867 74.121 Q 260.645 75 257.422 75 A 15.821 15.821 0 0 1 254.307 74.712 Q 252.422 74.333 250.955 73.457 A 8.858 8.858 0 0 1 249.707 72.559 A 11.534 11.534 0 0 0 249.469 72.064 Q 249.121 71.387 248.828 71.094 A 7.247 7.247 0 0 1 248.291 70.264 A 2.205 2.205 0 0 1 248.134 69.904 Q 248.012 69.543 247.949 69.043 A 10.457 10.457 0 0 1 246.238 66.232 A 11.967 11.967 0 0 1 246.094 65.869 A 16.313 16.313 0 0 1 245.166 62.158 A 18.85 18.85 0 0 1 245.014 59.91 A 18.03 18.03 0 0 1 244.545 60.365 A 16.294 16.294 0 0 1 241.895 62.354 Q 238.086 64.648 233.496 66.162 A 110.116 110.116 0 0 1 225.127 68.549 A 121.733 121.733 0 0 1 223.877 68.848 A 68.75 68.75 0 0 0 214.16 71.875 A 33.138 33.138 0 0 0 213.183 71.889 Q 212.65 71.904 212.181 71.938 A 17.961 17.961 0 0 0 211.768 71.973 Q 210.742 72.07 209.814 72.217 Q 208.887 72.363 208.008 72.51 A 23.021 23.021 0 0 1 207.08 72.644 A 30.653 30.653 0 0 1 206.055 72.754 A 1.073 1.073 0 0 0 205.974 72.737 Q 205.836 72.713 205.741 72.741 A 0.256 0.256 0 0 0 205.566 72.9 A 1.301 1.301 0 0 1 205.273 73.34 Q 203.788 73.602 202.577 73.63 A 12.361 12.361 0 0 1 202.295 73.633 L 200.098 73.633 A 8.681 8.681 0 0 0 198.085 73.876 A 9.918 9.918 0 0 0 197.705 73.975 Q 196.484 74.316 195.508 74.219 A 18.901 18.901 0 0 1 190.318 73.252 A 14.29 14.29 0 0 1 184.033 68.994 A 17.551 17.551 0 0 1 180.798 63.22 Q 179.965 60.807 179.604 57.909 A 35.121 35.121 0 0 1 179.395 55.566 A 1.657 1.657 0 0 0 179.411 55.467 Q 179.448 55.201 179.363 55.073 A 0.243 0.243 0 0 0 179.248 54.98 A 1.301 1.301 0 0 1 178.809 54.687 A 6.52 6.52 0 0 1 178.847 53.956 Q 178.906 53.439 179.053 53.027 Q 179.295 52.348 179.104 51.284 A 6.543 6.543 0 0 0 179.102 51.27 Q 181.641 45.898 184.863 41.26 A 37.404 37.404 0 0 1 192.578 33.105 A 11.113 11.113 0 0 0 193.276 32.455 A 8.659 8.659 0 0 0 193.75 31.934 A 29.179 29.179 0 0 0 194.678 30.762 Q 195.117 30.176 195.703 29.736 A 3.294 3.294 0 0 1 196.449 29.322 A 4.548 4.548 0 0 1 197.168 29.102 A 25.245 25.245 0 0 1 200.684 25.806 A 29.578 29.578 0 0 1 202.051 24.805 A 88.557 88.557 0 0 1 208.008 21.045 A 1047.703 1047.703 0 0 0 214.209 17.432 Q 217.285 15.625 219.824 13.379 A 5.948 5.948 0 0 0 220.221 13.544 Q 220.865 13.782 221.245 13.712 A 0.737 0.737 0 0 0 221.387 13.672 Q 221.787 13.512 222.254 13.614 A 2.05 2.05 0 0 1 222.461 13.672 A 4.995 4.995 0 0 0 223.098 14.708 A 3.654 3.654 0 0 0 224.365 15.723 Q 225.586 16.309 226.807 16.943 Q 228.027 17.578 229.102 18.457 A 5.369 5.369 0 0 1 230.394 20.023 A 6.767 6.767 0 0 1 230.762 20.801 A 1.157 1.157 0 0 0 230.571 20.815 Q 230.194 20.878 230.223 21.223 A 0.649 0.649 0 0 0 230.225 21.24 A 2.897 2.897 0 0 0 230.406 21.968 A 3.349 3.349 0 0 0 230.469 22.119 A 1.806 1.806 0 0 1 230.606 22.58 Q 230.625 22.701 230.625 22.822 A 1.591 1.591 0 0 1 230.615 22.998 Q 230.576 23.352 230.124 23.421 A 1.612 1.612 0 0 1 229.883 23.438 A 0.72 0.72 0 0 0 229.987 23.7 Q 230.1 23.869 230.317 23.936 A 0.979 0.979 0 0 0 230.518 23.975 Q 231.055 24.023 231.055 24.512 A 1.586 1.586 0 0 1 231.023 24.837 Q 230.967 25.105 230.811 25.293 Q 230.596 25.55 230.721 26.109 A 2.818 2.818 0 0 0 230.762 26.27 Q 228.809 27.539 226.416 28.711 A 343.531 343.531 0 0 0 222.717 30.551 A 390.565 390.565 0 0 0 221.436 31.201 A 218.388 218.388 0 0 0 217.444 33.289 A 248.527 248.527 0 0 0 216.064 34.033 A 46.135 46.135 0 0 0 210.645 37.5 A 81.57 81.57 0 0 0 206.804 40.535 A 95 95 0 0 0 205.273 41.846 Q 202.539 44.238 200 46.875 A 82.598 82.598 0 0 0 195.215 52.295 A 45.18 45.18 0 0 0 192.674 55.755 A 37.339 37.339 0 0 0 191.406 57.813 A 3.316 3.316 0 0 0 191.543 58.113 Q 191.618 58.256 191.698 58.369 A 1.396 1.396 0 0 0 191.846 58.545 A 1.454 1.454 0 0 1 192.022 58.762 Q 192.101 58.88 192.174 59.027 A 3.441 3.441 0 0 1 192.285 59.277 Q 194.976 59.446 197.341 59.288 A 31.415 31.415 0 0 0 198.096 59.229 A 17.486 17.486 0 0 1 199.68 59.157 A 18.265 18.265 0 0 1 203.516 59.57 A 0.9 0.9 0 0 0 203.854 59.146 A 1.226 1.226 0 0 0 203.906 58.984 A 0.859 0.859 0 0 1 204.33 58.433 A 1.186 1.186 0 0 1 204.395 58.398 Q 209.961 57.813 214.746 56.592 A 557.269 557.269 0 0 0 224.512 54.004 A 211.225 211.225 0 0 1 223.767 53.723 A 155.579 155.579 0 0 1 223.096 53.467 A 29.697 29.697 0 0 0 222.18 53.131 A 25.673 25.673 0 0 0 221.875 53.027 Q 221.437 52.59 221.823 52.27 A 0.991 0.991 0 0 1 221.924 52.197 A 5.958 5.958 0 0 0 222.482 51.797 A 4.815 4.815 0 0 0 222.852 51.465 A 7.107 7.107 0 0 1 221.32 50.304 A 6.267 6.267 0 0 1 220.654 49.512 Q 219.964 48.537 219.713 47.023 A 9.909 9.909 0 0 1 219.629 46.387 A 1.785 1.785 0 0 0 219.986 45.993 A 1.395 1.395 0 0 0 220.215 45.215 A 1.272 1.272 0 0 0 220.095 44.655 Q 219.949 44.354 219.629 44.141 A 2.289 2.289 0 0 0 219.525 44.117 Q 219.225 44.057 219.141 44.141 A 0.446 0.446 0 0 0 219.067 44.24 Q 219.04 44.289 219.019 44.35 A 0.991 0.991 0 0 0 218.994 44.434 A 1.19 1.19 0 0 1 218.924 44.638 A 0.974 0.974 0 0 1 218.848 44.775 A 0.137 0.137 0 0 1 218.757 44.834 Q 218.653 44.855 218.46 44.773 A 1.787 1.787 0 0 1 218.359 44.727 Q 218.457 43.848 218.799 43.262 A 4.655 4.655 0 0 0 219.137 42.541 A 6.05 6.05 0 0 0 219.336 41.895 Z M 442.399 23.66 A 18.871 18.871 0 0 0 446.973 26.27 A 5.527 5.527 0 0 1 447.919 26.02 Q 448.484 25.922 449.114 25.922 A 8.412 8.412 0 0 1 449.414 25.928 A 4.459 4.459 0 0 0 449.573 25.931 Q 450.833 25.931 451.66 25.195 A 8.302 8.302 0 0 1 451.741 24.655 Q 451.847 24.083 452.027 23.604 A 4.177 4.177 0 0 1 452.588 22.559 A 2.495 2.495 0 0 1 453.112 22.042 Q 453.504 21.755 454.033 21.585 A 5.024 5.024 0 0 1 454.98 21.387 A 12.252 12.252 0 0 1 455.137 22.365 Q 455.295 23.719 455.078 24.805 A 15.323 15.323 0 0 1 454.248 27.588 A 65.556 65.556 0 0 0 453.223 30.273 Q 452.734 31.641 452.832 33.398 A 53.208 53.208 0 0 0 452.78 33.523 Q 451.652 36.272 451.27 38.086 A 2586.819 2586.819 0 0 1 450.891 39.88 A 2094.871 2094.871 0 0 1 450.537 41.553 A 25.674 25.674 0 0 1 450.351 42.365 A 29.469 29.469 0 0 1 449.609 44.873 A 14.394 14.394 0 0 1 449.102 46.135 Q 448.797 46.809 448.388 47.569 A 35.812 35.812 0 0 1 447.559 49.023 A 2.257 2.257 0 0 0 447.56 49.106 Q 447.575 49.529 447.754 49.707 Q 447.949 49.902 448.145 50.195 A 3.878 3.878 0 0 0 446.875 51.904 A 15.605 15.605 0 0 0 446.24 54.004 Q 445.996 55.078 445.703 56.104 Q 445.41 57.129 444.531 57.813 Q 445.215 58.984 445.313 60.254 Q 444.629 60.449 444.336 60.938 A 3.442 3.442 0 0 0 444.115 61.376 A 4.207 4.207 0 0 0 443.896 62.061 A 7.729 7.729 0 0 0 443.8 62.55 A 9.241 9.241 0 0 0 443.701 63.428 A 20.491 20.491 0 0 1 443.688 63.61 A 18.693 18.693 0 0 1 443.555 64.844 A 10.931 10.931 0 0 0 443.734 65.371 A 9.429 9.429 0 0 0 444.922 67.627 A 5.147 5.147 0 0 1 444.967 67.691 Q 445.487 68.436 445.487 69.015 A 1.136 1.136 0 0 1 445.313 69.629 A 1.722 1.722 0 0 1 445.655 69.743 Q 446.291 70.034 446.68 70.85 A 6.087 6.087 0 0 1 446.761 71.028 Q 447.072 71.739 447.021 72.167 A 0.776 0.776 0 0 1 446.973 72.363 Q 447.629 72.56 448.064 72.779 A 3 3 0 0 1 448.437 72.998 Q 448.926 73.34 449.316 73.779 L 450.098 74.658 A 2.529 2.529 0 0 0 450.359 74.911 Q 450.543 75.066 450.779 75.214 A 5.737 5.737 0 0 0 451.27 75.488 A 2.482 2.482 0 0 1 451.366 75.397 Q 451.823 74.986 452.31 74.986 A 1.185 1.185 0 0 1 452.49 75 Q 452.966 75.073 453.854 75.201 A 448.353 448.353 0 0 0 454.492 75.293 A 3.083 3.083 0 0 0 454.867 75.07 Q 455.174 74.858 455.473 74.552 A 6.278 6.278 0 0 0 456.006 73.926 A 18.945 18.945 0 0 0 456.677 72.974 A 14.157 14.157 0 0 0 457.227 72.07 A 24.818 24.818 0 0 0 457.536 72.292 Q 458.013 72.627 458.559 72.98 A 42.765 42.765 0 0 0 459.766 73.73 A 18.378 18.378 0 0 0 461.029 74.425 A 14.375 14.375 0 0 0 462.598 75.098 A 10.078 10.078 0 0 0 463.25 75.307 Q 464.081 75.542 464.72 75.542 A 3.279 3.279 0 0 0 464.893 75.537 A 1.398 1.398 0 0 0 464.979 75.53 Q 465.825 75.433 465.918 74.316 Q 466.406 74.512 466.455 74.951 A 0.693 0.693 0 0 0 466.742 75.449 A 1.099 1.099 0 0 0 466.992 75.586 A 64.07 64.07 0 0 1 468.127 75.391 A 86.357 86.357 0 0 1 469.385 75.195 A 28.934 28.934 0 0 0 470.075 75.085 A 24.964 24.964 0 0 0 471.875 74.707 A 12.996 12.996 0 0 0 472.854 74.423 A 10.165 10.165 0 0 0 473.975 73.975 A 4.352 4.352 0 0 0 474.668 73.569 A 3.148 3.148 0 0 0 475.391 72.852 Q 481.445 71.973 487.061 69.482 A 96.692 96.692 0 0 0 497.852 63.867 Q 498.92 62.952 499.392 62.513 A 8.474 8.474 0 0 0 499.609 62.305 A 9.482 9.482 0 0 0 499.902 61.998 A 11.424 11.424 0 0 0 500.391 61.426 A 13.657 13.657 0 0 0 500.42 61.388 Q 500.709 61.025 501.196 60.364 A 99.908 99.908 0 0 0 501.563 59.863 A 27.727 27.727 0 0 1 501.881 59.435 Q 502.472 58.655 503.518 57.355 A 250.719 250.719 0 0 1 504.492 56.152 A 2.01 2.01 0 0 0 504.502 56.1 Q 504.566 55.731 504.526 55.181 A 7.842 7.842 0 0 0 504.492 54.834 Q 504.395 54.004 503.711 53.613 A 1.973 1.973 0 0 0 503.719 53.605 Q 504.296 53.021 504.199 52.148 A 4.856 4.856 0 0 0 504.132 51.723 Q 503.987 51.006 503.613 50.146 Q 503.125 49.023 502.588 47.803 Q 502.051 46.582 501.758 45.41 A 3.122 3.122 0 0 1 501.346 45.3 Q 501.105 45.216 500.923 45.099 A 1.196 1.196 0 0 1 500.488 44.629 A 13.18 13.18 0 0 0 498.096 41.65 A 36.55 36.55 0 0 0 495.117 39.16 A 110.832 110.832 0 0 1 492.041 36.768 Q 490.527 35.547 489.355 34.082 A 36.189 36.189 0 0 1 493.213 29.883 Q 495.313 27.93 497.168 25.732 A 21.374 21.374 0 0 0 500.244 20.898 A 11.788 11.788 0 0 0 501.134 18.023 Q 501.416 16.458 501.367 14.648 A 1.178 1.178 0 0 0 501.291 14.492 A 0.869 0.869 0 0 0 500.684 14.062 A 0.72 0.72 0 0 1 500.587 14.037 Q 500.206 13.903 500.293 13.379 A 5.801 5.801 0 0 0 500.292 13.282 A 4.852 4.852 0 0 0 499.561 10.742 A 8.89 8.89 0 0 0 499.221 10.239 A 9.802 9.802 0 0 0 497.705 8.594 A 45.847 45.847 0 0 0 495.361 6.689 A 13.91 13.91 0 0 1 494.772 6.216 A 11.885 11.885 0 0 1 493.262 4.688 A 2.452 2.452 0 0 1 492.495 4.567 A 2.685 2.685 0 0 1 491.65 4.102 A 37.579 37.579 0 0 1 490.894 3.479 A 48.172 48.172 0 0 1 490.088 2.783 A 12.244 12.244 0 0 0 488.281 1.465 A 3.972 3.972 0 0 0 487.319 1.049 A 4.677 4.677 0 0 0 486.035 0.879 A 0.79 0.79 0 0 0 485.937 0.926 Q 485.634 1.099 485.862 1.419 A 1.119 1.119 0 0 0 485.937 1.514 A 2.844 2.844 0 0 1 485.959 1.538 Q 486.296 1.926 485.979 1.865 A 0.805 0.805 0 0 1 485.938 1.855 A 8.32 8.32 0 0 0 485.689 1.69 Q 485.178 1.362 484.683 1.156 A 4.539 4.539 0 0 0 483.496 0.83 Q 482.324 0.684 481.738 0 Q 481.332 0.174 480.823 0.262 A 6.209 6.209 0 0 1 480.078 0.342 A 36.964 36.964 0 0 1 479.584 0.363 A 42.605 42.605 0 0 1 478.027 0.391 Q 476.953 0.391 475.977 0.439 A 5.325 5.325 0 0 0 475.949 0.441 Q 474.99 0.494 474.316 0.879 Q 472.663 0.785 471.069 0.826 A 33.821 33.821 0 0 0 464.551 1.611 A 149.744 149.744 0 0 0 463.281 1.901 Q 461.409 2.336 459.727 2.78 A 89.328 89.328 0 0 0 456.445 3.711 A 4.533 4.533 0 0 0 456.382 3.661 Q 456.004 3.37 455.962 3.482 A 0.098 0.098 0 0 0 455.957 3.516 Q 455.957 3.69 455.492 3.554 A 3.417 3.417 0 0 1 455.371 3.516 A 113.615 113.615 0 0 0 453.943 3.821 A 127.784 127.784 0 0 0 449.512 4.883 A 32.101 32.101 0 0 0 443.799 6.934 A 24.584 24.584 0 0 0 443.632 7.013 A 22.162 22.162 0 0 0 438.965 10.01 Q 436.816 11.816 435.84 14.453 A 27.861 27.861 0 0 0 436.498 15.953 A 23.822 23.822 0 0 0 440.186 21.582 A 16.705 16.705 0 0 0 442.399 23.66 Z M 386.523 47.852 L 385.449 47.559 A 19.131 19.131 0 0 0 382.939 46.349 A 23.535 23.535 0 0 0 381.25 45.752 A 29.712 29.712 0 0 1 379.33 45.083 Q 378.467 44.747 377.727 44.385 A 16.677 16.677 0 0 1 377.246 44.141 A 3.577 3.577 0 0 1 376.675 44.394 Q 375.921 44.647 375.244 44.434 Q 374.621 44.237 373.755 44.04 A 35.412 35.412 0 0 0 372.852 43.848 A 66.048 66.048 0 0 1 367.228 43.282 A 59.926 59.926 0 0 1 366.455 43.164 Q 363.379 42.676 360.547 41.406 A 3.905 3.905 0 0 0 360.169 40.684 A 3.533 3.533 0 0 0 360.059 40.527 A 0.626 0.626 0 0 0 359.689 40.293 Q 359.447 40.235 359.098 40.306 A 2.645 2.645 0 0 0 358.984 40.332 Q 358.398 39.551 357.813 38.818 A 11.403 11.403 0 0 1 356.862 37.424 A 12.727 12.727 0 0 1 356.738 37.207 A 59.168 59.168 0 0 0 356.871 36.376 Q 356.933 35.968 356.98 35.613 A 28.271 28.271 0 0 0 357.031 35.205 A 1.768 1.768 0 0 0 357.043 34.998 Q 357.043 34.277 356.445 33.594 A 70.338 70.338 0 0 0 356.628 32.99 Q 356.885 32.129 357.031 31.543 Q 357.213 30.817 357.057 29.668 A 10.118 10.118 0 0 0 357.031 29.492 A 8.598 8.598 0 0 1 359.229 25.977 A 16.398 16.398 0 0 1 362.549 23.486 A 22.986 22.986 0 0 1 366.309 21.777 Q 368.262 21.094 370.02 20.605 A 116.617 116.617 0 0 1 375.912 18.295 A 135.551 135.551 0 0 1 378.369 17.432 A 117.095 117.095 0 0 1 387.451 14.746 A 54.265 54.265 0 0 1 396.973 13.232 Q 400.603 12.978 404.504 13.777 A 34.588 34.588 0 0 1 407.227 14.453 A 6.913 6.913 0 0 0 408.105 16.309 A 57.102 57.102 0 0 0 409.326 18.066 A 23.37 23.37 0 0 1 410.062 19.146 A 19.555 19.555 0 0 1 410.449 19.775 A 4.475 4.475 0 0 1 410.929 20.913 A 3.999 3.999 0 0 1 411.035 21.484 Q 412.012 22.363 412.598 23.389 Q 413.184 24.414 412.793 26.074 A 33.468 33.468 0 0 1 411.473 27.079 A 28.501 28.501 0 0 1 410.889 27.49 A 13.234 13.234 0 0 1 408.887 28.613 A 23.084 23.084 0 0 0 403.412 27.954 A 23.49 23.49 0 0 0 401.562 28.027 A 663.042 663.042 0 0 1 398.255 28.281 Q 396.478 28.412 394.922 28.516 A 2.949 2.949 0 0 0 393.791 27.793 A 2.956 2.956 0 0 0 392.822 27.637 Q 391.602 27.637 390.283 28.027 L 387.646 28.809 Q 386.768 29.069 385.954 29.069 A 4.843 4.843 0 0 1 385.156 29.004 A 4.837 4.837 0 0 1 383.566 29.837 A 6.182 6.182 0 0 1 382.764 30.029 Q 381.348 30.273 379.688 30.469 A 1.368 1.368 0 0 0 379.671 30.571 Q 379.651 30.735 379.682 30.853 A 0.373 0.373 0 0 0 379.883 31.104 Q 380.173 31.249 379.984 31.73 A 1.669 1.669 0 0 1 379.98 31.738 A 3.171 3.171 0 0 0 381.295 32.646 A 3.848 3.848 0 0 0 381.494 32.715 A 71.55 71.55 0 0 0 382.941 33.154 A 82.01 82.01 0 0 0 383.447 33.301 A 9.469 9.469 0 0 1 384.468 33.653 A 7.287 7.287 0 0 1 385.254 34.033 A 2.193 2.193 0 0 1 386.189 35.075 A 3.003 3.003 0 0 1 386.328 35.449 Q 387.793 35.449 388.867 36.133 A 6.253 6.253 0 0 1 390.331 37.408 A 5.817 5.817 0 0 1 390.625 37.793 Q 391.309 38.77 391.65 39.893 A 9.041 9.041 0 0 1 391.872 40.765 Q 391.992 41.373 391.992 41.895 A 2.669 2.669 0 0 0 392.101 42.148 Q 392.321 42.589 392.59 42.589 A 0.352 0.352 0 0 0 392.676 42.578 A 0.546 0.546 0 0 1 392.809 42.562 Q 393.126 42.562 393.502 42.918 A 2.609 2.609 0 0 1 393.555 42.969 A 4.735 4.735 0 0 0 394.022 44.17 Q 394.292 44.663 394.689 45.164 A 9.21 9.21 0 0 0 395.02 45.557 A 10.885 10.885 0 0 1 396.875 48.438 Q 397.043 50.536 397.139 52.237 A 110.188 110.188 0 0 1 397.168 52.783 A 8.273 8.273 0 0 1 397.179 53.207 Q 397.179 54.905 396.484 56.641 A 21.379 21.379 0 0 1 392.432 63.086 Q 389.844 65.918 386.572 68.115 Q 383.301 70.313 379.59 71.875 A 78.162 78.162 0 0 1 374.133 73.944 A 68.198 68.198 0 0 1 372.363 74.512 A 1.605 1.605 0 0 0 371.973 74.463 A 1.605 1.605 0 0 0 371.582 74.512 A 0.525 0.525 0 0 1 371.536 74.521 Q 371.203 74.573 371.387 74.023 A 3.989 3.989 0 0 1 370.407 74.663 A 3.515 3.515 0 0 1 369.678 74.902 Q 368.75 75.098 367.676 75.049 Q 366.602 75 365.479 74.902 A 8.455 8.455 0 0 0 364.746 74.87 Q 364.164 74.87 363.625 74.956 A 6.384 6.384 0 0 0 363.379 75 A 23.944 23.944 0 0 1 362.656 74.246 A 19.088 19.088 0 0 1 362.158 73.682 A 3.874 3.874 0 0 1 361.634 72.866 A 5.323 5.323 0 0 1 361.328 72.07 A 0.705 0.705 0 0 1 361.157 72.051 Q 360.849 71.974 360.889 71.582 A 1.119 1.119 0 0 0 360.893 71.523 Q 360.913 71.094 360.547 71.094 A 18.803 18.803 0 0 0 360.674 70.879 Q 361.117 70.117 361.086 69.977 A 0.062 0.062 0 0 0 361.084 69.971 A 0.28 0.28 0 0 0 361.014 69.862 Q 360.945 69.793 360.82 69.738 A 1.11 1.11 0 0 0 360.791 69.727 Q 360.547 69.629 360.352 69.482 Q 360.156 69.336 360.254 69.043 A 2.974 2.974 0 0 0 360.549 67.994 Q 360.584 67.645 360.549 67.262 A 4.552 4.552 0 0 0 360.547 67.236 A 491.517 491.517 0 0 1 360.352 65.137 Q 360.254 64.063 360.498 63.086 Q 360.742 62.109 361.914 61.523 A 21.219 21.219 0 0 0 364.394 61.672 A 18.273 18.273 0 0 0 368.213 61.279 A 28.349 28.349 0 0 0 373.746 59.509 A 26.445 26.445 0 0 0 373.828 59.473 A 55.835 55.835 0 0 0 378.857 56.934 A 60.402 60.402 0 0 1 383.007 54.765 A 54.707 54.707 0 0 1 383.594 54.492 A 4.525 4.525 0 0 1 383.961 53.664 A 3.58 3.58 0 0 1 384.424 53.027 A 11.587 11.587 0 0 1 385.547 51.953 Q 386.133 51.465 386.621 50.879 A 3.094 3.094 0 0 0 387.117 50.032 A 4.063 4.063 0 0 0 387.305 49.414 Q 387.372 48.945 387.185 48.728 A 0.492 0.492 0 0 0 386.963 48.584 Q 386.55 48.446 386.525 47.92 A 1.462 1.462 0 0 1 386.523 47.852 Z M 171.484 54.395 L 169.531 53.711 L 169.141 56.152 L 167.773 56.543 L 166.797 57.715 Q 164.941 60.938 162.891 63.135 A 25.646 25.646 0 0 1 158.252 67.041 A 37.759 37.759 0 0 1 154.844 69.033 A 46.966 46.966 0 0 1 152.393 70.215 Q 149.173 71.656 145.149 73.382 A 693.623 693.623 0 0 1 145.02 73.438 Q 143.359 73.242 142.139 73.193 A 48.795 48.795 0 0 1 140.67 73.113 A 40.443 40.443 0 0 1 139.844 73.047 A 30.248 30.248 0 0 1 138.346 73.007 Q 137.66 72.972 136.887 72.909 A 65.212 65.212 0 0 1 135.254 72.754 A 2.529 2.529 0 0 0 135.018 72.274 Q 134.822 71.969 134.554 71.785 A 1.5 1.5 0 0 0 134.375 71.68 Q 133.904 71.444 133.495 71.398 A 1.735 1.735 0 0 0 133.301 71.387 A 5.599 5.599 0 0 1 131.604 70.182 A 5.215 5.215 0 0 1 130.811 69.092 A 41.658 41.658 0 0 1 129.692 66.895 A 48.974 48.974 0 0 1 129.199 65.82 A 41.25 41.25 0 0 0 128.589 64.535 A 34.517 34.517 0 0 0 128.223 63.818 A 37.936 37.936 0 0 0 127.435 62.399 A 42.928 42.928 0 0 0 127.148 61.914 L 128.809 61.426 L 126.66 59.082 A 2.47 2.47 0 0 0 126.261 58.622 A 2.832 2.832 0 0 0 126.172 58.545 A 2.59 2.59 0 0 1 125.781 58.142 A 2.325 2.325 0 0 1 125.684 58.008 L 125.586 56.445 Q 125.293 49.707 125.342 44.092 A 37.817 37.817 0 0 1 125.733 38.86 A 28.215 28.215 0 0 1 126.855 34.082 L 126.855 33.008 A 83.552 83.552 0 0 1 127.002 31.979 Q 127.215 30.553 127.427 29.512 A 28.709 28.709 0 0 1 127.441 29.443 A 56.934 56.934 0 0 0 127.769 27.731 A 47.626 47.626 0 0 0 127.93 26.758 A 25.372 25.372 0 0 1 128.469 23.95 A 21.6 21.6 0 0 1 128.809 22.754 Q 130.176 22.461 130.859 21.631 Q 131.447 20.918 131.89 20.312 A 20.267 20.267 0 0 0 132.031 20.117 A 6.545 6.545 0 0 1 132.28 20.104 Q 133.444 20.065 133.887 20.508 A 3.085 3.085 0 0 1 134.207 20.891 Q 134.511 21.314 134.814 21.964 A 11.101 11.101 0 0 1 134.863 22.07 A 20.482 20.482 0 0 0 135.337 22.877 Q 135.588 23.284 135.883 23.725 A 35.112 35.112 0 0 0 136.084 24.023 A 4.168 4.168 0 0 0 137.286 25.175 A 5.795 5.795 0 0 0 138.281 25.684 A 11.103 11.103 0 0 0 138.619 26.781 A 13.087 13.087 0 0 0 138.818 27.295 A 172.032 172.032 0 0 1 139.172 28.162 A 218.099 218.099 0 0 1 139.551 29.102 A 36.732 36.732 0 0 1 140.967 32.568 A 13.944 13.944 0 0 1 141.521 34.608 A 11.291 11.291 0 0 1 141.699 36.035 A 15.217 15.217 0 0 0 140.74 38.308 A 19.889 19.889 0 0 0 140.186 40.332 A 31.536 31.536 0 0 0 139.502 45.264 A 31.337 31.337 0 0 0 139.447 47.104 A 27.829 27.829 0 0 0 139.6 50.049 Q 139.787 51.806 140.174 53.134 A 10.87 10.87 0 0 0 140.43 53.906 L 141.016 55.176 L 142.676 54.98 A 58.206 58.206 0 0 0 145.471 54.163 A 45.315 45.315 0 0 0 147.998 53.271 A 27.112 27.112 0 0 0 152.054 51.309 A 24.889 24.889 0 0 0 152.441 51.074 Q 154.492 49.805 156.348 48.096 A 56.147 56.147 0 0 0 158.252 46.252 A 74.32 74.32 0 0 0 160.254 44.141 A 24.038 24.038 0 0 0 163.432 39.724 A 27.001 27.001 0 0 0 163.818 39.014 Q 165.332 36.133 166.357 33.008 Q 167.383 29.883 167.92 26.807 A 62.235 62.235 0 0 0 168.458 23.095 A 51.156 51.156 0 0 0 168.652 20.996 A 2.84 2.84 0 0 0 169.501 20.538 Q 170.313 19.881 170.313 18.652 L 170.117 17.578 A 1.122 1.122 0 0 1 169.922 16.943 Q 169.922 16.634 170.082 16.284 A 2.393 2.393 0 0 1 170.117 16.211 Q 170.703 14.355 172.852 13.379 A 17.598 17.598 0 0 1 175.003 14.954 A 15.564 15.564 0 0 1 175.635 15.527 A 52.008 52.008 0 0 1 177.659 17.578 A 47.359 47.359 0 0 1 177.93 17.871 A 22.781 22.781 0 0 0 178.152 19.609 Q 178.289 20.42 178.48 21.125 A 12.544 12.544 0 0 0 178.613 21.582 A 41.389 41.389 0 0 0 179.688 24.609 A 133.607 133.607 0 0 1 180.615 27.295 A 11.769 11.769 0 0 1 180.952 28.545 Q 181.091 29.196 181.188 29.94 A 21.927 21.927 0 0 1 181.25 30.469 A 40.038 40.038 0 0 0 180.579 32.91 A 29.662 29.662 0 0 0 180.127 35.156 A 597.582 597.582 0 0 1 179.587 38.489 A 681.118 681.118 0 0 1 179.395 39.648 A 103.123 103.123 0 0 1 177.904 42.776 Q 177.122 44.344 176.367 45.703 Q 174.902 48.34 174.023 50.293 Q 173.535 50.781 173.193 51.416 A 57.979 57.979 0 0 1 172.653 52.396 A 66.075 66.075 0 0 1 172.461 52.734 A 4.345 4.345 0 0 0 172.336 52.934 Q 172.228 53.118 172.097 53.37 A 16.771 16.771 0 0 0 171.973 53.613 A 7.769 7.769 0 0 1 171.832 53.882 Q 171.701 54.12 171.593 54.265 A 1.17 1.17 0 0 1 171.485 54.394 Z M 349.219 64.844 L 349.023 65.234 A 14.36 14.36 0 0 1 348.096 67.302 A 18.055 18.055 0 0 1 347.314 68.604 Q 346.191 70.313 344.678 71.631 Q 343.164 72.949 341.309 73.828 A 10.167 10.167 0 0 1 337.402 74.805 Q 336.466 74.589 335.981 74.346 A 1.737 1.737 0 0 1 335.693 74.17 Q 335.254 73.828 334.766 73.535 Q 334.473 73.34 334.229 73.193 Q 334.019 73.067 333.845 72.978 A 4.649 4.649 0 0 0 333.789 72.949 L 332.617 72.461 L 333.008 71.191 A 2.864 2.864 0 0 0 333.061 70.928 Q 333.152 70.333 332.91 69.971 A 2.879 2.879 0 0 0 332.713 69.713 Q 332.489 69.448 332.119 69.099 A 16.797 16.797 0 0 0 331.738 68.75 L 331.152 68.164 A 4.329 4.329 0 0 1 330.857 67.839 A 3.389 3.389 0 0 1 330.664 67.578 L 329.004 65.723 L 331.641 65.039 A 12.548 12.548 0 0 0 332.824 64.648 Q 333.985 64.194 334.61 63.61 A 2.766 2.766 0 0 0 334.912 63.281 A 2.722 2.722 0 0 0 335.328 62.475 Q 335.639 61.548 335.572 60.081 A 13.206 13.206 0 0 0 335.547 59.668 A 12.584 12.584 0 0 0 334.61 59.515 Q 333.601 59.392 332.792 59.484 A 5.015 5.015 0 0 0 332.275 59.57 A 46.492 46.492 0 0 0 329.59 60.254 A 43.58 43.58 0 0 1 326.025 61.084 A 19.38 19.38 0 0 1 323.76 61.369 A 24.516 24.516 0 0 1 322.07 61.426 A 22.19 22.19 0 0 1 321.132 61.407 A 18.215 18.215 0 0 1 320.605 61.377 Q 319.922 61.328 319.141 61.23 L 318.164 61.035 A 11.231 11.231 0 0 0 318.091 60.665 Q 317.932 59.933 317.773 59.814 A 3.421 3.421 0 0 1 317.529 59.612 A 4.12 4.12 0 0 1 317.383 59.473 Q 316.895 58.984 316.357 58.154 A 2.168 2.168 0 0 1 316.027 57.203 Q 315.987 56.845 316.043 56.436 A 4.291 4.291 0 0 1 316.113 56.055 A 5.116 5.116 0 0 1 315.688 55.066 A 4.224 4.224 0 0 1 315.527 54.297 A 10.943 10.943 0 0 0 314.648 56.738 L 314.258 57.715 L 313.281 57.91 A 0.427 0.427 0 0 0 313.136 58.033 Q 313.046 58.149 312.988 58.35 A 3.832 3.832 0 0 0 312.941 58.53 Q 312.9 58.706 312.892 58.832 A 0.905 0.905 0 0 0 312.891 58.887 L 312.402 60.547 A 3.931 3.931 0 0 1 312.158 60.772 A 3.267 3.267 0 0 1 312.012 60.889 A 3.421 3.421 0 0 0 311.768 61.091 A 4.12 4.12 0 0 0 311.621 61.23 Q 311.426 62.109 311.133 62.988 A 50.046 50.046 0 0 1 310.73 64.151 A 42.728 42.728 0 0 1 310.547 64.648 A 28.314 28.314 0 0 0 309.816 66.794 A 25.495 25.495 0 0 0 309.717 67.139 Q 309.375 68.359 309.473 69.531 L 309.082 70.605 A 4.384 4.384 0 0 1 308.451 71.229 A 3.693 3.693 0 0 1 308.008 71.533 A 20.689 20.689 0 0 1 306.836 72.168 Q 306.672 72.332 306.403 72.462 A 2.504 2.504 0 0 1 306.299 72.51 A 18.384 18.384 0 0 0 306.137 72.58 Q 305.908 72.681 305.762 72.754 L 305.469 73.828 L 304.297 74.023 A 108.382 108.382 0 0 0 303.799 74.115 Q 303.185 74.23 302.857 74.3 A 11.258 11.258 0 0 0 302.783 74.316 Q 302.344 74.414 301.758 74.414 L 300.781 74.316 A 73.094 73.094 0 0 1 300.275 73.898 Q 299.728 73.443 299.342 73.1 A 19.574 19.574 0 0 1 299.121 72.9 A 8.576 8.576 0 0 0 298.334 72.264 A 10.72 10.72 0 0 0 297.754 71.875 A 12.414 12.414 0 0 1 297.385 71.358 Q 296.852 70.566 296.777 70.117 A 38.811 38.811 0 0 0 296.68 69.556 A 29.799 29.799 0 0 0 296.582 69.043 Q 296.454 68.658 296.389 68.358 A 3.344 3.344 0 0 1 296.338 68.066 A 1.472 1.472 0 0 0 296.291 67.834 Q 296.255 67.711 296.198 67.616 A 0.687 0.687 0 0 0 296.094 67.48 L 294.824 66.309 L 295.898 65.43 L 295.996 63.77 Q 297.949 58.789 300.146 54.199 A 1161.873 1161.873 0 0 1 304.688 44.824 A 137.187 137.187 0 0 0 306.201 41.699 A 137.187 137.187 0 0 1 307.715 38.574 Q 307.623 38.3 307.618 37.939 A 3.052 3.052 0 0 1 307.617 37.891 A 1.865 1.865 0 0 1 307.655 37.53 Q 307.689 37.355 307.756 37.164 A 3.541 3.541 0 0 1 307.813 37.012 A 47.511 47.511 0 0 0 308.563 35.815 Q 308.962 35.156 309.288 34.561 A 25.574 25.574 0 0 0 309.57 34.033 A 204.966 204.966 0 0 0 310.938 31.348 A 74.317 74.317 0 0 1 312.549 28.125 A 21.05 21.05 0 0 1 313.622 26.336 A 27.041 27.041 0 0 1 314.648 24.902 L 316.211 24.219 A 14.936 14.936 0 0 0 316.444 24.139 Q 316.547 24.102 316.66 24.061 A 26.877 26.877 0 0 0 316.895 23.975 A 2.277 2.277 0 0 1 317.421 23.849 A 2.919 2.919 0 0 1 317.773 23.828 L 319.238 24.023 A 14.618 14.618 0 0 0 324.023 20.459 A 41.404 41.404 0 0 0 326.033 18.018 Q 326.98 16.78 327.946 15.353 A 67.813 67.813 0 0 0 328.223 14.941 L 329.199 13.574 L 330.469 14.355 A 3.512 3.512 0 0 0 330.851 14.551 Q 331.259 14.732 331.836 14.893 A 86.792 86.792 0 0 1 332.739 15.149 A 102.558 102.558 0 0 1 333.691 15.43 A 42.382 42.382 0 0 1 336.193 16.063 A 36.724 36.724 0 0 1 337.012 16.309 A 7.077 7.077 0 0 1 338.348 16.874 A 5.413 5.413 0 0 1 339.551 17.773 Q 340.137 19.336 340.234 20.117 Q 340.332 20.898 340.527 21.68 A 117.356 117.356 0 0 1 341.064 25 A 32.743 32.743 0 0 1 341.272 26.758 A 44.306 44.306 0 0 1 341.406 28.711 Q 341.895 30.371 342.236 31.982 Q 342.578 33.594 342.871 35.254 A 354.264 354.264 0 0 0 343.726 39.243 A 322.688 322.688 0 0 0 343.848 39.795 Q 344.336 41.992 345.117 43.945 A 10.033 10.033 0 0 1 345.39 43.949 Q 345.935 43.964 346.094 44.043 A 5.312 5.312 0 0 1 347.119 43.75 A 27.217 27.217 0 0 1 347.655 43.658 Q 347.977 43.607 348.34 43.555 L 349.414 43.457 L 349.805 44.434 Q 349.887 44.846 350.526 45.258 A 4.53 4.53 0 0 0 350.781 45.41 A 6.598 6.598 0 0 1 351.441 45.492 Q 352.216 45.631 352.637 45.947 Q 353.223 46.387 353.711 46.875 Q 354.074 47.238 354.437 47.433 A 2.231 2.231 0 0 0 354.492 47.461 L 355.957 48.047 L 355.176 49.512 A 11.588 11.588 0 0 1 353.815 51.443 A 15.419 15.419 0 0 1 352.393 52.881 A 17.202 17.202 0 0 1 348.34 55.566 A 15.827 15.827 0 0 1 348.457 56.401 A 13.684 13.684 0 0 1 348.486 56.689 A 4.619 4.619 0 0 0 348.605 57.38 A 5.683 5.683 0 0 0 348.73 57.813 Q 349.023 59.473 349.219 61.23 A 16.127 16.127 0 0 1 349.316 63.013 A 17.483 17.483 0 0 1 349.219 64.844 Z M 804.98 71.777 L 802.734 72.363 A 124.358 124.358 0 0 1 799.878 73.242 A 155.942 155.942 0 0 1 796.777 74.121 Q 793.555 75 790.332 75 A 15.821 15.821 0 0 1 787.217 74.712 Q 785.332 74.333 783.865 73.457 A 8.858 8.858 0 0 1 782.617 72.559 A 11.534 11.534 0 0 0 782.379 72.064 Q 782.031 71.387 781.738 71.094 A 7.247 7.247 0 0 1 781.201 70.264 A 2.205 2.205 0 0 1 781.045 69.904 Q 780.922 69.543 780.859 69.043 A 10.457 10.457 0 0 1 779.148 66.232 A 11.967 11.967 0 0 1 779.004 65.869 A 16.313 16.313 0 0 1 778.076 62.158 A 18.85 18.85 0 0 1 777.924 59.759 A 19.488 19.488 0 0 1 777.979 58.301 A 19.521 19.521 0 0 1 778.469 55.144 A 17.669 17.669 0 0 1 778.613 54.59 A 2.553 2.553 0 0 0 778.805 54.083 A 2.2 2.2 0 0 0 778.857 53.809 A 10.195 10.195 0 0 1 778.914 53.421 Q 778.952 53.189 779.004 52.93 A 67.57 67.57 0 0 1 779.834 49.902 A 9.214 9.214 0 0 1 780.437 48.378 A 7.459 7.459 0 0 1 781.055 47.363 A 2.259 2.259 0 0 1 780.859 46.436 Q 780.859 45.947 781.055 45.41 A 14.582 14.582 0 0 1 781.581 44.144 A 12.031 12.031 0 0 1 781.934 43.457 A 1086.21 1086.21 0 0 0 782.897 40.832 Q 783.649 38.776 784.229 37.158 A 238.258 238.258 0 0 1 786.133 32.031 A 282.933 282.933 0 0 0 789.258 23.34 A 92.739 92.739 0 0 0 790.974 17.702 A 110.934 110.934 0 0 0 791.895 14.063 A 33.364 33.364 0 0 1 792.261 13.837 Q 792.773 13.525 793.066 13.379 A 21.591 21.591 0 0 1 793.347 13.287 Q 793.723 13.168 794.004 13.096 A 7.114 7.114 0 0 1 794.043 13.086 A 30.122 30.122 0 0 0 795.82 13.899 Q 796.899 14.354 798.145 14.795 A 19.477 19.477 0 0 0 799.533 15.233 Q 800.232 15.423 800.845 15.521 A 7.671 7.671 0 0 0 802.051 15.625 A 12.989 12.989 0 0 1 802.365 15.827 Q 802.875 16.167 803.027 16.357 A 5.712 5.712 0 0 0 803.271 16.644 A 4.741 4.741 0 0 0 803.418 16.797 A 19.564 19.564 0 0 1 804.918 18.81 A 17.365 17.365 0 0 1 805.273 19.385 A 3.922 3.922 0 0 1 805.733 20.602 Q 805.9 21.412 805.81 22.421 A 9.222 9.222 0 0 1 805.762 22.852 A 7.138 7.138 0 0 1 805.552 23.15 Q 805.121 23.73 804.883 23.73 Q 804.395 25.684 803.857 27.051 A 96.735 96.735 0 0 1 802.734 29.785 A 56.897 56.897 0 0 0 801.465 32.715 Q 800.879 34.18 800.488 36.328 A 4.972 4.972 0 0 0 800.249 36.652 Q 800.139 36.815 800.06 36.966 A 2.166 2.166 0 0 0 799.951 37.207 Q 799.805 37.598 799.609 38.086 A 22.725 22.725 0 0 1 799.346 38.715 A 26.976 26.976 0 0 1 799.17 39.111 A 2.498 2.498 0 0 1 798.472 40.011 A 2.906 2.906 0 0 1 798.437 40.039 A 23.856 23.856 0 0 1 798.196 41.669 Q 798.053 42.437 797.868 43.087 A 10.255 10.255 0 0 1 797.51 44.141 A 127.855 127.855 0 0 1 796.191 47.266 A 79.725 79.725 0 0 0 794.092 52.93 A 21.86 21.86 0 0 0 793.313 56.159 A 29.341 29.341 0 0 0 792.969 59.375 A 2.89 2.89 0 0 1 793.438 59.23 A 2.194 2.194 0 0 1 793.896 59.18 L 794.727 59.18 A 6.456 6.456 0 0 1 795.489 59.228 Q 795.859 59.272 796.27 59.357 A 12.394 12.394 0 0 1 796.777 59.473 Q 799.707 57.91 803.174 57.617 Q 806.641 57.324 810.059 57.227 L 812.793 57.227 A 16.858 16.858 0 0 0 814.348 57.158 A 13.653 13.653 0 0 0 815.332 57.031 Q 816.211 57.52 816.455 57.568 A 1.868 1.868 0 0 0 816.612 57.592 Q 816.837 57.617 817.188 57.617 A 8.118 8.118 0 0 1 817.673 57.631 Q 817.923 57.646 818.141 57.677 A 4.131 4.131 0 0 1 818.359 57.715 Q 819.312 58.588 820.201 59.075 A 6.119 6.119 0 0 0 820.605 59.277 A 23.001 23.001 0 0 0 822.852 60.156 A 40.232 40.232 0 0 1 824.951 60.986 A 8.241 8.241 0 0 1 826.338 61.752 A 9.865 9.865 0 0 1 826.953 62.207 L 827.637 66.406 A 7.772 7.772 0 0 1 827.84 66.679 Q 828.304 67.333 828.223 67.578 A 2.49 2.49 0 0 1 828.186 68.018 Q 828.143 68.259 828.048 68.448 A 1.158 1.158 0 0 1 827.832 68.75 L 828.027 69.824 A 12.734 12.734 0 0 0 827.353 69.977 Q 826.746 70.133 826.364 70.313 A 2.093 2.093 0 0 0 826.025 70.508 Q 825.488 70.898 825 71.387 A 23.402 23.402 0 0 1 824.637 71.429 Q 824.299 71.466 824.072 71.478 A 3.705 3.705 0 0 1 823.877 71.484 L 823.242 71.484 A 9.703 9.703 0 0 0 822.134 71.553 Q 821.576 71.617 820.946 71.742 A 21.191 21.191 0 0 0 819.922 71.973 Q 817.285 71.094 814.453 71.094 A 26.175 26.175 0 0 0 812.787 71.149 A 29.975 29.975 0 0 0 812.207 71.191 L 809.863 71.387 A 28.253 28.253 0 0 1 807.471 71.68 Q 806.25 71.777 804.98 71.777 Z M 858.301 71.777 L 856.055 72.363 A 124.358 124.358 0 0 1 853.198 73.242 A 155.942 155.942 0 0 1 850.098 74.121 Q 846.875 75 843.652 75 A 15.821 15.821 0 0 1 840.538 74.712 Q 838.653 74.333 837.185 73.457 A 8.858 8.858 0 0 1 835.937 72.559 A 11.534 11.534 0 0 0 835.699 72.064 Q 835.352 71.387 835.059 71.094 A 7.247 7.247 0 0 1 834.521 70.264 A 2.205 2.205 0 0 1 834.365 69.904 Q 834.242 69.543 834.18 69.043 A 10.457 10.457 0 0 1 832.468 66.232 A 11.967 11.967 0 0 1 832.324 65.869 A 16.313 16.313 0 0 1 831.396 62.158 A 18.85 18.85 0 0 1 831.244 59.759 A 19.488 19.488 0 0 1 831.299 58.301 A 19.521 19.521 0 0 1 831.789 55.144 A 17.669 17.669 0 0 1 831.934 54.59 A 2.553 2.553 0 0 0 832.125 54.083 A 2.2 2.2 0 0 0 832.178 53.809 A 10.195 10.195 0 0 1 832.234 53.421 Q 832.272 53.189 832.324 52.93 A 67.57 67.57 0 0 1 833.154 49.902 A 9.214 9.214 0 0 1 833.757 48.378 A 7.459 7.459 0 0 1 834.375 47.363 A 2.259 2.259 0 0 1 834.18 46.436 Q 834.18 45.947 834.375 45.41 A 14.582 14.582 0 0 1 834.901 44.144 A 12.031 12.031 0 0 1 835.254 43.457 A 1086.21 1086.21 0 0 0 836.217 40.832 Q 836.969 38.776 837.549 37.158 A 238.258 238.258 0 0 1 839.453 32.031 A 282.933 282.933 0 0 0 842.578 23.34 A 92.739 92.739 0 0 0 844.295 17.702 A 110.934 110.934 0 0 0 845.215 14.063 A 33.364 33.364 0 0 1 845.581 13.837 Q 846.094 13.525 846.387 13.379 A 21.591 21.591 0 0 1 846.667 13.287 Q 847.044 13.168 847.324 13.096 A 7.114 7.114 0 0 1 847.363 13.086 A 30.122 30.122 0 0 0 849.14 13.899 Q 850.22 14.354 851.465 14.795 A 19.477 19.477 0 0 0 852.853 15.233 Q 853.553 15.423 854.165 15.521 A 7.671 7.671 0 0 0 855.371 15.625 A 12.989 12.989 0 0 1 855.685 15.827 Q 856.195 16.167 856.348 16.357 A 5.712 5.712 0 0 0 856.592 16.644 A 4.741 4.741 0 0 0 856.738 16.797 A 19.564 19.564 0 0 1 858.238 18.81 A 17.365 17.365 0 0 1 858.594 19.385 A 3.922 3.922 0 0 1 859.053 20.602 Q 859.22 21.412 859.131 22.421 A 9.222 9.222 0 0 1 859.082 22.852 A 7.138 7.138 0 0 1 858.873 23.15 Q 858.441 23.73 858.203 23.73 Q 857.715 25.684 857.178 27.051 A 96.735 96.735 0 0 1 856.055 29.785 A 56.897 56.897 0 0 0 854.785 32.715 Q 854.199 34.18 853.809 36.328 A 4.972 4.972 0 0 0 853.569 36.652 Q 853.459 36.815 853.38 36.966 A 2.166 2.166 0 0 0 853.271 37.207 Q 853.125 37.598 852.93 38.086 A 22.725 22.725 0 0 1 852.666 38.715 A 26.976 26.976 0 0 1 852.49 39.111 A 2.498 2.498 0 0 1 851.792 40.011 A 2.906 2.906 0 0 1 851.758 40.039 A 23.856 23.856 0 0 1 851.516 41.669 Q 851.373 42.437 851.188 43.087 A 10.255 10.255 0 0 1 850.83 44.141 A 127.855 127.855 0 0 1 849.512 47.266 A 79.725 79.725 0 0 0 847.412 52.93 A 21.86 21.86 0 0 0 846.633 56.159 A 29.341 29.341 0 0 0 846.289 59.375 A 2.89 2.89 0 0 1 846.758 59.23 A 2.194 2.194 0 0 1 847.217 59.18 L 848.047 59.18 A 6.456 6.456 0 0 1 848.809 59.228 Q 849.18 59.272 849.59 59.357 A 12.394 12.394 0 0 1 850.098 59.473 Q 853.027 57.91 856.494 57.617 Q 859.961 57.324 863.379 57.227 L 866.113 57.227 A 16.858 16.858 0 0 0 867.668 57.158 A 13.653 13.653 0 0 0 868.652 57.031 Q 869.531 57.52 869.775 57.568 A 1.868 1.868 0 0 0 869.932 57.592 Q 870.157 57.617 870.508 57.617 A 8.118 8.118 0 0 1 870.993 57.631 Q 871.243 57.646 871.461 57.677 A 4.131 4.131 0 0 1 871.68 57.715 Q 872.633 58.588 873.521 59.075 A 6.119 6.119 0 0 0 873.926 59.277 A 23.001 23.001 0 0 0 876.172 60.156 A 40.232 40.232 0 0 1 878.271 60.986 A 8.241 8.241 0 0 1 879.658 61.752 A 9.865 9.865 0 0 1 880.273 62.207 L 880.957 66.406 A 7.772 7.772 0 0 1 881.16 66.679 Q 881.625 67.333 881.543 67.578 A 2.49 2.49 0 0 1 881.507 68.018 Q 881.463 68.259 881.368 68.448 A 1.158 1.158 0 0 1 881.152 68.75 L 881.348 69.824 A 12.734 12.734 0 0 0 880.673 69.977 Q 880.066 70.133 879.684 70.313 A 2.093 2.093 0 0 0 879.346 70.508 Q 878.809 70.898 878.32 71.387 A 23.402 23.402 0 0 1 877.957 71.429 Q 877.619 71.466 877.392 71.478 A 3.705 3.705 0 0 1 877.197 71.484 L 876.563 71.484 A 9.703 9.703 0 0 0 875.455 71.553 Q 874.897 71.617 874.266 71.742 A 21.191 21.191 0 0 0 873.242 71.973 Q 870.605 71.094 867.773 71.094 A 26.175 26.175 0 0 0 866.107 71.149 A 29.975 29.975 0 0 0 865.527 71.191 L 863.184 71.387 A 28.253 28.253 0 0 1 860.791 71.68 Q 859.57 71.777 858.301 71.777 Z M 6.185 73.877 A 11.482 11.482 0 0 0 8.105 74.512 A 237.531 237.531 0 0 1 21.533 68.799 A 148.086 148.086 0 0 0 34.766 62.891 Q 41.113 59.668 46.484 55.469 Q 51.855 51.27 55.371 45.117 L 55.371 43.75 A 4.244 4.244 0 0 1 55.393 43.314 A 3.17 3.17 0 0 1 55.469 42.871 L 55.664 42.09 A 7.114 7.114 0 0 1 55.674 42.05 Q 55.746 41.77 55.865 41.394 A 21.591 21.591 0 0 1 55.957 41.113 A 31.552 31.552 0 0 0 55.292 36.266 A 23.499 23.499 0 0 0 53.125 30.273 Q 50.684 25.684 47.021 22.119 A 57.423 57.423 0 0 0 38.916 15.576 Q 34.473 12.598 30.273 9.57 A 40.269 40.269 0 0 1 29.245 9.299 A 45.161 45.161 0 0 1 24.707 7.764 Q 21.875 6.641 18.945 5.42 Q 16.016 4.199 12.988 2.93 A 69.519 69.519 0 0 0 6.836 0.684 A 8.748 8.748 0 0 0 6.557 1.212 A 9.488 9.488 0 0 0 5.762 3.711 A 13.139 13.139 0 0 1 5.443 5.076 A 16.001 16.001 0 0 1 4.687 7.129 Q 5.273 9.375 5.908 11.084 Q 6.543 12.793 6.543 14.551 L 4.98 14.551 A 1.358 1.358 0 0 0 4.963 14.551 Q 4.259 14.56 4.371 15.303 A 1.857 1.857 0 0 0 4.395 15.43 Q 4.547 15.735 4.461 16.129 A 1.768 1.768 0 0 1 4.395 16.357 Q 4.199 16.895 4.102 17.969 A 58.094 58.094 0 0 1 5.019 21.838 A 70.712 70.712 0 0 1 6.055 28.809 A 49.91 49.91 0 0 1 6.306 33.777 A 46.404 46.404 0 0 1 5.859 40.234 A 1.541 1.541 0 0 0 5.856 40.236 Q 5.45 40.44 5.045 40.925 A 5.535 5.535 0 0 0 4.688 41.406 Q 4.395 44.531 3.516 47.461 A 147.196 147.196 0 0 1 3.064 48.938 A 165.398 165.398 0 0 1 1.562 53.516 Q 1.618 54.401 1.438 55.067 A 2.712 2.712 0 0 1 1.025 55.957 A 6.349 6.349 0 0 0 0.42 57.001 A 8.659 8.659 0 0 0 0 58.105 Q 0.293 60.938 0.537 63.574 A 24.525 24.525 0 0 0 0.789 65.49 A 19.98 19.98 0 0 0 1.514 68.408 Q 2.246 70.605 3.76 72.217 A 6.336 6.336 0 0 0 4.336 72.758 Q 5.126 73.412 6.185 73.877 Z M 85.156 20.996 L 85.156 19.922 Q 86.914 19.141 87.744 18.115 Q 88.574 17.09 89.746 15.625 Q 90.585 15.532 91.112 15.528 A 6.168 6.168 0 0 1 91.162 15.527 A 4.382 4.382 0 0 0 91.507 15.512 Q 92.001 15.472 92.773 15.332 A 19.049 19.049 0 0 1 93.247 14.544 Q 93.753 13.751 94.189 13.281 A 5.729 5.729 0 0 1 94.701 12.8 Q 94.981 12.564 95.329 12.319 A 14.558 14.558 0 0 1 96.094 11.816 A 8.061 8.061 0 0 0 98.159 12.511 A 9.379 9.379 0 0 0 98.682 12.598 Q 100.098 12.793 101.172 13.867 A 3.624 3.624 0 0 0 101.285 14.487 Q 101.437 15.028 101.758 15.381 Q 102.246 15.918 102.832 16.357 A 15.442 15.442 0 0 1 103.955 17.285 A 2.216 2.216 0 0 1 104.472 18.003 Q 104.606 18.291 104.685 18.641 A 3.819 3.819 0 0 1 104.688 18.652 Q 104.903 18.706 105.044 18.671 A 0.312 0.312 0 0 0 105.225 18.555 Q 105.371 18.359 105.762 18.457 A 10.61 10.61 0 0 0 105.909 19.065 Q 106.149 19.931 106.445 20.264 Q 106.742 20.597 107.038 21.409 A 11.548 11.548 0 0 1 107.227 21.973 A 9.264 9.264 0 0 0 106.494 23.975 A 2.172 2.172 0 0 1 105.436 25.4 A 2.814 2.814 0 0 1 105.273 25.488 Q 105.182 26.126 105.601 26.211 A 0.628 0.628 0 0 0 105.664 26.221 Q 106.081 26.262 106.213 26.624 A 0.908 0.908 0 0 1 106.25 26.758 Q 106.348 27.637 105.957 28.027 A 64.955 64.955 0 0 1 110.156 36.084 A 64.955 64.955 0 0 0 114.355 44.141 A 6.98 6.98 0 0 0 114.331 44.72 A 6.304 6.304 0 0 0 114.551 46.387 A 16.033 16.033 0 0 0 115.283 48.486 A 40.232 40.232 0 0 1 116.113 50.586 A 13.181 13.181 0 0 1 116.699 52.734 A 9.934 9.934 0 0 1 116.795 53.954 Q 116.811 54.794 116.699 55.713 A 16.7 16.7 0 0 1 116.016 58.838 Q 115.527 60.352 114.746 61.572 A 6.011 6.011 0 0 1 113.949 62.577 A 4.598 4.598 0 0 1 112.891 63.379 A 9.604 9.604 0 0 1 109.57 66.113 A 19.099 19.099 0 0 0 105.957 68.457 A 7.376 7.376 0 0 1 103.688 69.405 A 8.333 8.333 0 0 1 103.564 69.434 A 362.921 362.921 0 0 1 100.879 70.02 Q 99.956 70.523 98.744 71.063 A 43.859 43.859 0 0 1 98.34 71.24 Q 96.875 71.875 95.313 72.412 Q 93.75 72.949 92.188 73.193 A 15.577 15.577 0 0 1 91.153 73.321 Q 90.296 73.397 89.58 73.349 A 7.597 7.597 0 0 1 89.453 73.34 A 27.108 27.108 0 0 1 85.582 74.453 A 23.17 23.17 0 0 1 83.74 74.756 Q 81.018 75.09 77.407 74.35 A 31.369 31.369 0 0 1 77.246 74.316 A 19.457 19.457 0 0 1 75.101 74.498 Q 72.8 74.561 70.752 74.023 A 15.599 15.599 0 0 1 66.669 72.33 A 14.262 14.262 0 0 1 65.479 71.533 A 18.429 18.429 0 0 1 61.475 67.432 A 24.607 24.607 0 0 1 58.691 62.402 A 31.888 31.888 0 0 1 58.398 59.155 Q 58.295 56.361 58.742 53.857 A 21.101 21.101 0 0 1 59.082 52.295 A 34.169 34.169 0 0 1 62.315 44.138 A 32.096 32.096 0 0 1 62.451 43.896 A 44.541 44.541 0 0 1 67.48 36.768 A 666.503 666.503 0 0 0 72.784 30.567 A 612.203 612.203 0 0 0 72.949 30.371 A 1.909 1.909 0 0 0 73.152 30.427 Q 73.446 30.49 73.668 30.424 A 0.701 0.701 0 0 0 73.877 30.322 Q 74.198 30.093 74.476 29.691 A 3.658 3.658 0 0 0 74.512 29.639 Q 74.805 29.199 75.146 28.809 A 1.46 1.46 0 0 1 75.977 28.32 A 4.984 4.984 0 0 1 76.979 26.871 A 4.551 4.551 0 0 1 77.979 26.123 A 5.423 5.423 0 0 0 80.078 24.023 A 5.364 5.364 0 0 0 80.779 23.82 Q 81.142 23.685 81.436 23.506 A 3.133 3.133 0 0 0 81.543 23.437 Q 82.129 23.047 82.666 22.559 A 15.442 15.442 0 0 1 83.789 21.631 A 3.666 3.666 0 0 1 84.859 21.082 A 4.36 4.36 0 0 1 85.156 20.996 Z M 535.254 20.996 L 535.254 19.922 Q 537.012 19.141 537.842 18.115 Q 538.672 17.09 539.844 15.625 Q 540.683 15.532 541.21 15.528 A 6.168 6.168 0 0 1 541.26 15.527 A 4.382 4.382 0 0 0 541.604 15.512 Q 542.099 15.472 542.871 15.332 A 19.049 19.049 0 0 1 543.345 14.544 Q 543.851 13.751 544.287 13.281 A 5.729 5.729 0 0 1 544.799 12.8 Q 545.078 12.564 545.427 12.319 A 14.558 14.558 0 0 1 546.191 11.816 A 8.061 8.061 0 0 0 548.257 12.511 A 9.379 9.379 0 0 0 548.779 12.598 Q 550.195 12.793 551.27 13.867 A 3.624 3.624 0 0 0 551.383 14.487 Q 551.535 15.028 551.855 15.381 Q 552.344 15.918 552.93 16.357 A 15.442 15.442 0 0 1 554.053 17.285 A 2.216 2.216 0 0 1 554.57 18.003 Q 554.704 18.291 554.783 18.641 A 3.819 3.819 0 0 1 554.785 18.652 Q 555.001 18.706 555.142 18.671 A 0.312 0.312 0 0 0 555.322 18.555 Q 555.469 18.359 555.859 18.457 A 10.61 10.61 0 0 0 556.007 19.065 Q 556.247 19.931 556.543 20.264 Q 556.839 20.597 557.136 21.409 A 11.548 11.548 0 0 1 557.324 21.973 A 9.264 9.264 0 0 0 556.592 23.975 A 2.172 2.172 0 0 1 555.534 25.4 A 2.814 2.814 0 0 1 555.371 25.488 Q 555.28 26.126 555.698 26.211 A 0.628 0.628 0 0 0 555.762 26.221 Q 556.179 26.262 556.311 26.624 A 0.908 0.908 0 0 1 556.348 26.758 Q 556.445 27.637 556.055 28.027 A 64.955 64.955 0 0 1 560.254 36.084 A 64.955 64.955 0 0 0 564.453 44.141 A 6.98 6.98 0 0 0 564.429 44.72 A 6.304 6.304 0 0 0 564.648 46.387 A 16.033 16.033 0 0 0 565.381 48.486 A 40.232 40.232 0 0 1 566.211 50.586 A 13.181 13.181 0 0 1 566.797 52.734 A 9.934 9.934 0 0 1 566.893 53.954 Q 566.908 54.794 566.797 55.713 A 16.7 16.7 0 0 1 566.113 58.838 Q 565.625 60.352 564.844 61.572 A 6.011 6.011 0 0 1 564.047 62.577 A 4.598 4.598 0 0 1 562.988 63.379 A 9.604 9.604 0 0 1 559.668 66.113 A 19.099 19.099 0 0 0 556.055 68.457 A 7.376 7.376 0 0 1 553.785 69.405 A 8.333 8.333 0 0 1 553.662 69.434 A 362.921 362.921 0 0 1 550.977 70.02 Q 550.053 70.523 548.842 71.063 A 43.859 43.859 0 0 1 548.438 71.24 Q 546.973 71.875 545.41 72.412 Q 543.848 72.949 542.285 73.193 A 15.577 15.577 0 0 1 541.251 73.321 Q 540.394 73.397 539.677 73.349 A 7.597 7.597 0 0 1 539.551 73.34 A 27.108 27.108 0 0 1 535.68 74.453 A 23.17 23.17 0 0 1 533.838 74.756 Q 531.115 75.09 527.505 74.35 A 31.369 31.369 0 0 1 527.344 74.316 A 19.457 19.457 0 0 1 525.199 74.498 Q 522.897 74.561 520.85 74.023 A 15.599 15.599 0 0 1 516.766 72.33 A 14.262 14.262 0 0 1 515.576 71.533 A 18.429 18.429 0 0 1 511.572 67.432 A 24.607 24.607 0 0 1 508.789 62.402 A 31.888 31.888 0 0 1 508.496 59.155 Q 508.392 56.361 508.84 53.857 A 21.101 21.101 0 0 1 509.18 52.295 A 34.169 34.169 0 0 1 512.413 44.138 A 32.096 32.096 0 0 1 512.549 43.896 A 44.541 44.541 0 0 1 517.578 36.768 A 666.503 666.503 0 0 0 522.882 30.567 A 612.203 612.203 0 0 0 523.047 30.371 A 1.909 1.909 0 0 0 523.25 30.427 Q 523.544 30.49 523.766 30.424 A 0.701 0.701 0 0 0 523.975 30.322 Q 524.296 30.093 524.574 29.691 A 3.658 3.658 0 0 0 524.609 29.639 Q 524.902 29.199 525.244 28.809 A 1.46 1.46 0 0 1 526.074 28.32 A 4.984 4.984 0 0 1 527.077 26.871 A 4.551 4.551 0 0 1 528.076 26.123 A 5.423 5.423 0 0 0 530.176 24.023 A 5.364 5.364 0 0 0 530.877 23.82 Q 531.239 23.685 531.534 23.506 A 3.133 3.133 0 0 0 531.641 23.437 Q 532.227 23.047 532.764 22.559 A 15.442 15.442 0 0 1 533.887 21.631 A 3.666 3.666 0 0 1 534.956 21.082 A 4.36 4.36 0 0 1 535.254 20.996 Z M 16.809 19.277 A 1.152 1.152 0 0 0 16.406 19.531 A 82.777 82.777 0 0 1 17.617 24.706 A 66.95 66.95 0 0 1 18.164 27.832 A 57.448 57.448 0 0 1 18.799 35.645 A 56.953 56.953 0 0 1 18.803 36.356 A 61.701 61.701 0 0 1 18.359 43.652 Q 17.871 47.754 16.992 52.539 A 8.827 8.827 0 0 0 18.18 52.37 A 6.602 6.602 0 0 0 19.238 52.051 A 33.272 33.272 0 0 0 20.731 51.41 A 37.323 37.323 0 0 0 21.24 51.172 Q 22.266 50.684 23.389 50.293 Q 24.512 49.902 25.977 49.805 A 3.503 3.503 0 0 1 26.461 49.071 A 2.903 2.903 0 0 1 27.002 48.584 A 8.574 8.574 0 0 0 27.789 47.971 A 7.263 7.263 0 0 0 28.125 47.656 Q 30.566 46.68 33.008 45.605 A 30.173 30.173 0 0 0 36.684 43.687 A 26.916 26.916 0 0 0 37.5 43.164 A 21.449 21.449 0 0 0 41.211 40.039 A 14.148 14.148 0 0 0 43.447 36.875 A 16.737 16.737 0 0 0 43.945 35.84 A 9.563 9.563 0 0 0 42.678 33.997 A 8.484 8.484 0 0 0 42.041 33.35 Q 40.918 32.324 39.697 31.299 A 36.65 36.65 0 0 1 37.354 29.15 Q 36.23 28.027 35.547 26.563 A 8.793 8.793 0 0 1 34.082 26.257 A 6.812 6.812 0 0 1 32.813 25.732 A 70.114 70.114 0 0 1 30.836 24.622 A 63.466 63.466 0 0 1 30.566 24.463 A 29.28 29.28 0 0 0 28.873 23.538 A 33.107 33.107 0 0 0 28.271 23.242 A 6.659 6.659 0 0 0 26.805 22.747 A 9.152 9.152 0 0 0 25.391 22.559 A 27.885 27.885 0 0 0 23.408 21.585 Q 22.453 21.164 21.579 20.882 A 14.472 14.472 0 0 0 20.801 20.654 A 10.891 10.891 0 0 1 19.508 20.234 Q 18.874 19.98 18.374 19.666 A 4.93 4.93 0 0 1 17.676 19.141 Q 17.157 19.141 16.809 19.277 Z M 102.148 53.418 Q 102.539 52.344 103.174 51.66 Q 103.809 50.977 103.906 49.609 A 9.169 9.169 0 0 1 103.687 49.24 Q 103.476 48.865 103.379 48.589 A 1.754 1.754 0 0 1 103.32 48.389 Q 103.247 48.057 103.229 47.421 A 15.812 15.812 0 0 1 103.223 46.973 A 38.578 38.578 0 0 1 99.512 40.479 Q 97.949 37.012 95.996 33.984 A 1.776 1.776 0 0 1 95.789 34.302 Q 95.672 34.447 95.515 34.592 A 3.778 3.778 0 0 1 95.312 34.766 A 0.774 0.774 0 0 1 95.14 34.872 Q 94.725 35.053 94.245 34.577 A 2.202 2.202 0 0 1 94.238 34.57 Q 94.094 35.147 93.791 35.484 A 1.388 1.388 0 0 1 93.555 35.693 A 1.587 1.587 0 0 1 92.625 35.992 A 1.745 1.745 0 0 1 92.48 35.986 A 4.081 4.081 0 0 1 91.729 35.849 A 5.113 5.113 0 0 1 91.26 35.693 A 4.336 4.336 0 0 1 90.406 35.256 A 3.867 3.867 0 0 1 90.137 35.059 Q 87.305 37.305 84.473 39.453 A 28.271 28.271 0 0 0 79.395 44.434 A 3.582 3.582 0 0 1 79.284 44.487 Q 78.989 44.622 78.906 44.58 A 0.087 0.087 0 0 0 78.882 44.573 Q 78.779 44.555 78.458 44.673 A 5.54 5.54 0 0 0 78.32 44.727 Q 77.539 46.582 76.416 48.096 Q 75.293 49.609 74.219 51.172 Q 73.145 52.734 72.363 54.492 A 9.815 9.815 0 0 0 71.704 56.639 A 13.346 13.346 0 0 0 71.484 58.594 A 7.54 7.54 0 0 0 75.356 60.249 A 8.971 8.971 0 0 0 75.391 60.254 A 21.227 21.227 0 0 0 78.139 60.43 A 23.231 23.231 0 0 0 80.029 60.352 A 43.897 43.897 0 0 0 84.717 59.717 A 25.757 25.757 0 0 1 87.059 59.374 A 19.665 19.665 0 0 1 88.965 59.277 A 34.247 34.247 0 0 0 92.329 58.301 Q 94.094 57.685 95.575 56.915 A 20.411 20.411 0 0 0 95.996 56.689 Q 98.926 55.078 102.148 53.418 Z M 552.246 53.418 Q 552.637 52.344 553.271 51.66 Q 553.906 50.977 554.004 49.609 A 9.169 9.169 0 0 1 553.784 49.24 Q 553.573 48.865 553.476 48.589 A 1.754 1.754 0 0 1 553.418 48.389 Q 553.344 48.057 553.326 47.421 A 15.812 15.812 0 0 1 553.32 46.973 A 38.578 38.578 0 0 1 549.609 40.479 Q 548.047 37.012 546.094 33.984 A 1.776 1.776 0 0 1 545.887 34.302 Q 545.77 34.447 545.613 34.592 A 3.778 3.778 0 0 1 545.41 34.766 A 0.774 0.774 0 0 1 545.238 34.872 Q 544.823 35.053 544.342 34.577 A 2.202 2.202 0 0 1 544.336 34.57 Q 544.192 35.147 543.888 35.484 A 1.388 1.388 0 0 1 543.652 35.693 A 1.587 1.587 0 0 1 542.723 35.992 A 1.745 1.745 0 0 1 542.578 35.986 A 4.081 4.081 0 0 1 541.827 35.849 A 5.113 5.113 0 0 1 541.357 35.693 A 4.336 4.336 0 0 1 540.504 35.256 A 3.867 3.867 0 0 1 540.234 35.059 Q 537.402 37.305 534.57 39.453 A 28.271 28.271 0 0 0 529.492 44.434 A 3.582 3.582 0 0 1 529.382 44.487 Q 529.087 44.622 529.004 44.58 A 0.087 0.087 0 0 0 528.98 44.573 Q 528.877 44.555 528.556 44.673 A 5.54 5.54 0 0 0 528.418 44.727 Q 527.637 46.582 526.514 48.096 Q 525.391 49.609 524.316 51.172 Q 523.242 52.734 522.461 54.492 A 9.815 9.815 0 0 0 521.801 56.639 A 13.346 13.346 0 0 0 521.582 58.594 A 7.54 7.54 0 0 0 525.453 60.249 A 8.971 8.971 0 0 0 525.488 60.254 A 21.227 21.227 0 0 0 528.236 60.43 A 23.231 23.231 0 0 0 530.127 60.352 A 43.897 43.897 0 0 0 534.814 59.717 A 25.757 25.757 0 0 1 537.156 59.374 A 19.665 19.665 0 0 1 539.062 59.277 A 34.247 34.247 0 0 0 542.427 58.301 Q 544.191 57.685 545.673 56.915 A 20.411 20.411 0 0 0 546.094 56.689 Q 549.023 55.078 552.246 53.418 Z M 489.941 45.117 A 26.162 26.162 0 0 0 487.247 43.813 Q 485.077 42.92 483.154 42.676 Q 481.707 42.492 480.324 42.492 A 19.396 19.396 0 0 0 477.295 42.725 A 38.701 38.701 0 0 0 472.291 43.849 A 35.587 35.587 0 0 0 471.973 43.945 A 35.724 35.724 0 0 1 466.895 45.117 A 189.811 189.811 0 0 0 465.601 48.608 A 246.377 246.377 0 0 0 464.258 52.441 Q 462.891 56.445 461.621 60.254 Q 465.137 59.766 468.066 58.789 Q 470.996 57.813 473.73 56.592 A 430.674 430.674 0 0 0 479.102 54.15 A 83.506 83.506 0 0 1 484.57 51.855 A 3.114 3.114 0 0 1 485.84 50 Q 486.816 49.316 487.793 48.682 A 8.469 8.469 0 0 0 488.899 47.831 A 7.148 7.148 0 0 0 489.453 47.266 Q 490.08 46.549 489.968 45.341 A 4.548 4.548 0 0 0 489.941 45.117 Z M 483.105 14.551 A 49.968 49.968 0 0 0 481.494 14.525 A 48.516 48.516 0 0 0 471.191 15.625 A 39.392 39.392 0 0 0 466.42 16.96 Q 464.024 17.806 462.046 18.916 A 22.997 22.997 0 0 0 461.328 19.336 A 31.121 31.121 0 0 0 465.381 22.266 Q 467.48 23.535 468.555 25.684 A 32.329 32.329 0 0 0 474.202 22.807 A 27.851 27.851 0 0 0 476.758 20.947 A 43.667 43.667 0 0 0 483.105 14.551 Z M 328.32 34.668 L 327.734 35.645 A 40.192 40.192 0 0 0 324.887 38.995 A 46.485 46.485 0 0 0 323.975 40.234 Q 322.168 42.773 320.898 45.02 L 319.727 46.777 A 25.471 25.471 0 0 0 318.652 48.535 A 7.167 7.167 0 0 1 319.435 48.447 A 6.172 6.172 0 0 1 319.775 48.437 A 5.331 5.331 0 0 0 320.616 48.373 A 4.788 4.788 0 0 0 320.801 48.34 Q 323.73 48.145 326.123 47.9 A 48.152 48.152 0 0 0 328.645 47.572 Q 329.978 47.364 331.445 47.07 A 502.546 502.546 0 0 0 330.365 42.538 A 568.496 568.496 0 0 0 329.98 40.967 Q 329.199 37.793 328.32 34.668 Z" vector-effect="non-scaling-stroke"/></g></svg>